<?xml version="1.0" encoding="UTF-8" standalone="no"?>
<svg
   xmlns:dc="http://purl.org/dc/elements/1.1/"
   xmlns:cc="http://creativecommons.org/ns#"
   xmlns:rdf="http://www.w3.org/1999/02/22-rdf-syntax-ns#"
   xmlns:svg="http://www.w3.org/2000/svg"
   xmlns="http://www.w3.org/2000/svg"
   viewBox="0 0 1080.5333 1920"
   height="1920"
   width="1080.5333"
   id="svg2"
   version="1.1">
  <metadata
     id="metadata8">
    <rdf:RDF>
      <cc:Work
         rdf:about="">
        <dc:format>image/svg+xml</dc:format>
        <dc:type
           rdf:resource="http://purl.org/dc/dcmitype/StillImage" />
        <dc:title></dc:title>
      </cc:Work>
    </rdf:RDF>
  </metadata>
  <defs
     id="defs6" />
  <g
     style="display:none"
     id="layer3">
    <circle
       r="219.66101"
       cy="650.84747"
       cx="776.94916"
       id="path891"
       style="fill:#0a0872;fill-opacity:1;stroke:none;stroke-width:3.86299992;stroke-miterlimit:4;stroke-dasharray:none;stroke-opacity:1" />
  </g>
  <g
     style="display:inline"
     id="layer2">
    <g
       id="flowRoot873"
       style="font-style:normal;font-weight:normal;font-size:40px;line-height:1.25;font-family:sans-serif;letter-spacing:0px;word-spacing:0px;fill:#000000;fill-opacity:1;stroke:none"
       transform="translate(10.169492,30.508475)"
       aria-label="Узнать больше">
      <path
         id="path912"
         style="fill:#ffffff;fill-opacity:1"
         d="m 624.99609,627.78711 q -0.41015,0.97656 -1.03515,1.71875 -1.54297,1.81641 -6.44532,1.81641 h -1.5039 v -3.32032 h 1.23047 q 2.32422,0 3.22265,-0.52734 0.54688,-0.33203 0.89844,-1.15234 l 0.87891,-2.07032 -9.35547,-22.08984 h 4.23828 l 7.24609,17.10937 7.28516,-17.10937 h 4.23828 z" />
      <path
         id="path914"
         style="fill:#ffffff;fill-opacity:1"
         d="m 650.36719,619.52539 q 2.42187,0.46875 3.76953,1.89453 1.34765,1.42578 1.34765,3.53516 0,3.3789 -2.51953,5.15625 -2.51953,1.77734 -7.16797,1.77734 -1.5625,0 -3.22265,-0.27344 -1.64063,-0.27343 -3.39844,-0.82031 v -3.33984 q 1.38672,0.72265 3.04688,1.09375 1.66015,0.35156 3.47656,0.35156 2.94922,0 4.58984,-1.09375 1.66016,-1.09375 1.66016,-2.85156 0,-1.71875 -1.46485,-2.75391 -1.46484,-1.05469 -4.14062,-1.05469 h -2.89063 v -2.96875 h 3.02735 q 2.26562,0 3.57422,-0.85937 1.32812,-0.87891 1.32812,-2.24609 0,-1.25 -1.36719,-2.14844 -1.34765,-0.89844 -3.67187,-0.89844 -1.38672,0 -2.96875,0.25391 -1.5625,0.2539 -3.45703,0.82031 v -3.26172 q 1.91406,-0.46875 3.57422,-0.70312 1.66015,-0.23438 3.14453,-0.23438 3.82812,0 6.03515,1.54297 2.22657,1.52344 2.22657,4.27734 0,1.81641 -1.17188,3.08594 -1.17187,1.25 -3.35937,1.71875 z" />
      <path
         id="path916"
         style="fill:#ffffff;fill-opacity:1"
         d="m 661.46094,609.44727 h 3.61328 v 8.92578 h 11.66015 v -8.92578 h 3.61329 v 21.875 h -3.61329 v -10.07813 h -11.66015 v 10.07813 h -3.61328 z" />
      <path
         id="path918"
         style="fill:#ffffff;fill-opacity:1"
         d="m 697.71094,620.32617 q -4.35547,0 -6.03516,0.9961 -1.67969,0.99609 -1.67969,3.39843 0,1.91407 1.25,3.04688 1.26953,1.11328 3.4375,1.11328 2.98828,0 4.78516,-2.10938 1.81641,-2.1289 1.81641,-5.64453 v -0.80078 z m 7.16797,-1.48437 v 12.48047 h -3.59375 v -3.32032 q -1.23047,1.99219 -3.06641,2.94922 -1.83594,0.9375 -4.49219,0.9375 -3.35937,0 -5.35156,-1.875 -1.97266,-1.89453 -1.97266,-5.05859 0,-3.69141 2.46094,-5.56641 2.48047,-1.875 7.38281,-1.875 h 5.03907 v -0.35156 q 0,-2.48047 -1.64063,-3.82813 -1.62109,-1.36718 -4.57031,-1.36718 -1.875,0 -3.65235,0.44922 -1.77734,0.44921 -3.41796,1.34765 v -3.32031 q 1.97265,-0.76172 3.82812,-1.13281 1.85547,-0.39063 3.61328,-0.39063 4.7461,0 7.08985,2.46094 2.34375,2.46094 2.34375,7.46094 z" />
      <path
         id="path920"
         style="fill:#ffffff;fill-opacity:1"
         d="m 709.70312,609.44727 h 20.95704 v 2.87109 h -8.71094 v 19.00391 h -3.53516 v -19.00391 h -8.71094 z" />
      <path
         id="path922"
         style="fill:#ffffff;fill-opacity:1"
         d="m 749.19531,624.83789 q 0,-1.75781 -1.28906,-2.67578 -1.26953,-0.91797 -3.73047,-0.91797 h -5.11719 v 7.20703 h 5.11719 q 2.46094,0 3.73047,-0.91797 1.28906,-0.9375 1.28906,-2.69531 z m -13.75,-15.39062 h 3.61328 v 8.92578 h 5.27344 q 4.17969,0 6.42578,1.60156 2.26563,1.58203 2.26563,4.86328 0,3.28125 -2.26563,4.88281 -2.24609,1.60157 -6.42578,1.60157 h -8.88672 z" />
      <path
         id="path924"
         style="fill:#ffffff;fill-opacity:1"
         d="m 780.58203,608.91992 q 4.6875,0 7.36328,3.04688 2.67578,3.04687 2.67578,8.4375 0,5.37109 -2.67578,8.4375 -2.67578,3.04687 -7.36328,3.04687 -4.70703,0 -7.30469,-2.96875 -2.59765,-2.96875 -2.73437,-8.51562 l -0.11719,-4.47266 q -0.0977,-2.32422 -0.0977,-3.125 0,-3.125 1.13282,-5.42969 1.77734,-3.61328 4.84375,-5.17578 3.08593,-1.5625 8.24218,-1.60156 2.38282,-0.0195 3.4375,-0.35156 l 0.9961,2.85156 q -0.95703,0.39062 -1.83594,0.41016 l -4.88281,0.33203 q -2.46094,0.17578 -3.94531,1.03515 -3.88672,2.28516 -4.25782,5.27344 l -0.13672,1.09375 q 2.53907,-2.32422 6.66016,-2.32422 z m 0,3.04688 q -2.89062,0 -4.57031,2.26562 -1.67969,2.2461 -1.67969,6.17188 0,3.92578 1.66016,6.1914 1.67968,2.2461 4.58984,2.2461 2.87109,0 4.55078,-2.26563 1.67969,-2.26562 1.67969,-6.17187 0,-3.88672 -1.67969,-6.15235 -1.67969,-2.28515 -4.55078,-2.28515 z" />
      <path
         id="path926"
         style="fill:#ffffff;fill-opacity:1"
         d="m 805.07422,611.9668 q -2.89063,0 -4.57031,2.26562 -1.67969,2.2461 -1.67969,6.17188 0,3.92578 1.66015,6.1914 1.67969,2.2461 4.58985,2.2461 2.87109,0 4.55078,-2.26563 1.67969,-2.26562 1.67969,-6.17187 0,-3.88672 -1.67969,-6.15235 -1.67969,-2.28515 -4.55078,-2.28515 z m 0,-3.04688 q 4.6875,0 7.36328,3.04688 2.67578,3.04687 2.67578,8.4375 0,5.37109 -2.67578,8.4375 -2.67578,3.04687 -7.36328,3.04687 -4.70703,0 -7.38281,-3.04687 -2.65625,-3.06641 -2.65625,-8.4375 0,-5.39063 2.65625,-8.4375 2.67578,-3.04688 7.38281,-3.04688 z" />
      <path
         id="path928"
         style="fill:#ffffff;fill-opacity:1"
         d="m 818.76562,631.32227 v -2.98829 q 3.55469,-0.54687 4.64844,-3.00781 1.32813,-3.45703 1.32813,-12.30469 v -3.57421 h 14.78515 v 21.875 h -3.59375 v -19.00391 h -7.59765 v 2.16797 q 0,8.4375 -1.71875,12.22656 -1.83594,4.04297 -7.85157,4.60938 z" />
      <path
         id="path930"
         style="fill:#ffffff;fill-opacity:1"
         d="m 860.21094,624.83789 q 0,-1.75781 -1.28907,-2.67578 -1.26953,-0.91797 -3.73046,-0.91797 h -5.11719 v 7.20703 h 5.11719 q 2.46093,0 3.73046,-0.91797 1.28907,-0.9375 1.28907,-2.69531 z m -13.75,-15.39062 h 3.61328 v 8.92578 h 5.27344 q 4.17968,0 6.42578,1.60156 2.26562,1.58203 2.26562,4.86328 0,3.28125 -2.26562,4.88281 -2.2461,1.60157 -6.42578,1.60157 h -8.88672 z" />
      <path
         id="path932"
         style="fill:#ffffff;fill-opacity:1"
         d="m 886.51953,628.45117 h 9.25781 v -19.0039 h 3.61328 v 21.875 h -29.33593 v -21.875 h 3.61328 v 19.0039 h 9.23828 v -19.0039 h 3.61328 z" />
      <path
         id="path934"
         style="fill:#ffffff;fill-opacity:1"
         d="m 925.54297,619.48633 v 1.75781 h -16.52344 q 0.23438,3.71094 2.22656,5.66406 2.01172,1.9336 5.58594,1.9336 2.07031,0 4.00391,-0.50782 1.95312,-0.50781 3.86718,-1.52343 v 3.39843 q -1.93359,0.82032 -3.96484,1.25 -2.03125,0.42969 -4.12109,0.42969 -5.23438,0 -8.30078,-3.04687 -3.04688,-3.04688 -3.04688,-8.24219 0,-5.37109 2.89063,-8.51563 2.91015,-3.16406 7.83203,-3.16406 4.41406,0 6.97265,2.85156 2.57813,2.83204 2.57813,7.71485 z m -3.59375,-1.05469 q -0.0391,-2.94922 -1.66016,-4.70703 -1.60156,-1.75781 -4.25781,-1.75781 -3.00781,0 -4.82422,1.69922 -1.79687,1.69921 -2.07031,4.78515 z" />
    </g>
  </g>
</svg>
