<?xml version="1.0" encoding="UTF-8" standalone="no"?>
<!-- Created with Inkscape (http://www.inkscape.org/) -->

<svg
   xmlns:dc="http://purl.org/dc/elements/1.1/"
   xmlns:cc="http://creativecommons.org/ns#"
   xmlns:rdf="http://www.w3.org/1999/02/22-rdf-syntax-ns#"
   xmlns:svg="http://www.w3.org/2000/svg"
   xmlns="http://www.w3.org/2000/svg"
   xmlns:sodipodi="http://sodipodi.sourceforge.net/DTD/sodipodi-0.dtd"
   xmlns:inkscape="http://www.inkscape.org/namespaces/inkscape"
   width="210mm"
   height="297mm"
   viewBox="0 0 210 297"
   version="1.1"
   id="svg3719"
   sodipodi:docname="drawing_white.svg"
   inkscape:version="0.92.3 (2405546, 2018-03-11)">
  <defs
     id="defs3713" />
  <sodipodi:namedview
     id="base"
     pagecolor="#ffffff"
     bordercolor="#666666"
     borderopacity="1.0"
     inkscape:pageopacity="0.0"
     inkscape:pageshadow="2"
     inkscape:zoom="1.4"
     inkscape:cx="94.895895"
     inkscape:cy="939.53946"
     inkscape:document-units="mm"
     inkscape:current-layer="layer1"
     showgrid="false"
     inkscape:window-width="1857"
     inkscape:window-height="1018"
     inkscape:window-x="63"
     inkscape:window-y="34"
     inkscape:window-maximized="1" />
  <metadata
     id="metadata3716">
    <rdf:RDF>
      <cc:Work
         rdf:about="">
        <dc:format>image/svg+xml</dc:format>
        <dc:type
           rdf:resource="http://purl.org/dc/dcmitype/StillImage" />
      </cc:Work>
    </rdf:RDF>
  </metadata>
  <g
     inkscape:label="Layer 1"
     inkscape:groupmode="layer"
     id="layer1">
    <rect
       style="fill:none;stroke:#000000;stroke-width:1.07193703;stroke-miterlimit:4;stroke-dasharray:none;stroke-opacity:1"
       id="rect3723"
       width="68.107613"
       height="48.649982"
       x="-3.1718001"
       y="23.281601"
       ry="5.916893"
       transform="matrix(0.98127646,-0.19260452,0.40673843,0.91354466,0,0)" />
    <rect
       style="fill:none;stroke:#000000;stroke-width:1.37897698;stroke-miterlimit:4;stroke-dasharray:none;stroke-opacity:1"
       id="rect3723-5"
       width="64.020966"
       height="49.641602"
       x="-98.958267"
       y="138.04002"
       ry="6.037497"
       transform="matrix(0.97895789,-0.20406236,0.91131015,0.41172056,0,0)" />
    <rect
       style="fill:none;stroke:#000000;stroke-width:1.37897698;stroke-miterlimit:4;stroke-dasharray:none;stroke-opacity:1"
       id="rect3723-3"
       width="64.020966"
       height="49.641602"
       x="-88.913345"
       y="127.48342"
       ry="6.037497"
       transform="matrix(0.97895789,-0.20406236,0.91131015,0.41172056,0,0)" />
    <rect
       style="fill:none;stroke:#000000;stroke-width:1.07193703;stroke-miterlimit:4;stroke-dasharray:none;stroke-opacity:1;fill-opacity:1"
       id="rect3723-56"
       width="68.107605"
       height="48.649982"
       x="-7.3326335"
       y="30.445831"
       ry="5.916893"
       transform="matrix(0.98127646,-0.19260452,0.40673843,0.91354466,0,0)" />
    <path
       style="fill:none;stroke:#000000;stroke-width:1.05833333;stroke-linecap:butt;stroke-linejoin:miter;stroke-miterlimit:4;stroke-dasharray:none;stroke-opacity:1"
       d="m 15.371519,32.503599 c 0,0 4.63629,-0.96053 4.18415,-1.46579 -1.09023,-1.21832 -3.73759,-3.68203 -3.19808,-2.45186 1.98524,4.5266 10.97431,25.07188 13.01778,29.74255 0.30674,0.63361 0.76195,0.88453 1.51667,0.73654 l 48.2104,-9.18785 c 0.57226,-0.0866 0.46724,-0.091 -0.0141,-0.2795 l -2.89366,-1.1334 c -0.79848,-0.31012 -0.71719,-0.43303 -0.50252,0.38329 l 0.97613,3.71216"
       id="path4703"
       inkscape:connector-curvature="0"
       sodipodi:nodetypes="cssccccccc" />
    <path
       style="fill:none;stroke:#000000;stroke-width:1.05833333;stroke-linecap:butt;stroke-linejoin:miter;stroke-miterlimit:4;stroke-dasharray:none;stroke-opacity:1"
       d="m 32.760019,51.275519 -4.49484,-16.26075 c -0.72239,-2.48318 -0.81002,-2.48383 0.9092,-0.55175 l 12.35842,13.88851 c 2.05397,2.35423 2.04053,2.53088 1.11736,-0.51217 l -2.46184,-8.11495 c -0.7237,-2.50979 -1.25175,-3.04365 0.92171,-1.02923 l 3.17558,2.94323 c 1.91418,1.91816 1.28599,1.17236 1.00587,-0.9519 l -1.28015,-9.70776 c -0.45471,-2.42789 -0.0956,-1.67986 1.16902,-0.12336 l 10.71495,13.18763 c 1.70667,2.2008 1.59645,2.18794 1.51158,-0.52792 l -0.16344,-5.23008 c -0.17044,-2.31532 -0.0534,-1.9263 1.29412,-0.33377 l 1.96212,2.31886"
       id="path4713"
       inkscape:connector-curvature="0"
       sodipodi:nodetypes="cccccccccccccccc" />
    <path
       style="fill:none;stroke:#000000;stroke-width:1.05833333;stroke-linecap:butt;stroke-linejoin:miter;stroke-miterlimit:4;stroke-dasharray:none;stroke-opacity:1"
       d="m 73.309599,84.616129 38.166441,-8.22023 c 0.89206,-0.142 1.55029,-0.21181 2.45369,0.0701 l 2.75143,0.85858 c 1.70549,0.45615 1.10996,0.36545 -0.18696,0.653 l -38.341331,8.5011 c -1.18642,0.16924 -1.87139,0.20939 -2.95143,-0.01 l -2.36063,-0.66956 c -2.91663,-0.66443 -1.86616,-0.68036 0.46879,-1.18325 z"
       id="path4715"
       inkscape:connector-curvature="0"
       sodipodi:nodetypes="cccccccccc" />
    <path
       style="color:#000000;font-style:normal;font-variant:normal;font-weight:normal;font-stretch:normal;font-size:medium;line-height:normal;font-family:sans-serif;font-variant-ligatures:normal;font-variant-position:normal;font-variant-caps:normal;font-variant-numeric:normal;font-variant-alternates:normal;font-feature-settings:normal;text-indent:0;text-align:start;text-decoration:none;text-decoration-line:none;text-decoration-style:solid;text-decoration-color:#000000;letter-spacing:normal;word-spacing:normal;text-transform:none;writing-mode:lr-tb;direction:ltr;text-orientation:mixed;dominant-baseline:auto;baseline-shift:baseline;text-anchor:start;white-space:normal;shape-padding:0;clip-rule:nonzero;display:inline;overflow:visible;visibility:visible;opacity:1;isolation:auto;mix-blend-mode:normal;color-interpolation:sRGB;color-interpolation-filters:linearRGB;solid-color:#000000;solid-opacity:1;vector-effect:none;fill-opacity:1;fill-rule:nonzero;stroke:#000000;stroke-width:1.05833333;stroke-linecap:butt;stroke-linejoin:miter;stroke-miterlimit:4;stroke-dasharray:none;stroke-dashoffset:0;stroke-opacity:1;color-rendering:auto;image-rendering:auto;shape-rendering:auto;text-rendering:auto;enable-background:accumulate"
       d="m 66.488759,0.48237851 c -0.55496,0 -0.87194,0.41654 -0.73502,0.97135999 l 0.35734,1.4448 c -0.75221,0.22463 -1.42581,0.56172 -2.00749,1.00301 l -1.49256,-0.91829 c -0.56404,-0.3468 -1.17455,-0.30773 -1.42701,0.0824 h -8e-5 l -1.14144,1.79464 c -0.2509,0.39447 -0.0581,1.01932 0.44794,1.45708 l 1.41612,1.22677 c -0.13167,0.69949 -0.15508,1.44466 -0.0682,2.21907 l -1.48649,0.17708 c -0.53116,0.065001 -0.77718,0.5335105 -0.57519,1.0884705 l 0.92406,2.53883 c 0.20199,0.55497 0.78905,1.02346 1.36754,1.08848 l 1.70552,0.18987 c 0.46427,0.70643 0.9982,1.38783 1.592,2.02786 l -0.55893,1.30318 c -0.18744,0.43783 0.079,1.06255 0.6127,1.45701 l 2.44783,1.79463 c 0.53805,0.39448 1.17552,0.42914 1.48708,0.0824 l 0.92167,-1.02468 c 0.80458,0.382 1.62032,0.68067 2.4335,0.89221 l 0.80048,1.66623 c 0.26695,0.55482 0.88707,0.97136 1.44202,0.97136 h 2.53884 c 0.55496,0 0.87183,-0.41658 0.73493,-0.97136 l -0.39908,-1.60626 c 0.71582,-0.20758 1.36197,-0.51498 1.929,-0.91397 l 1.61289,0.99079 -3e-5,-8e-5 c 0.56405,0.3468 1.17459,0.30781 1.42705,-0.0823 l -3e-5,-9e-5 1.14147,-1.79454 c 0.25088,-0.39446 0.0582,-1.01934 -0.44786,-1.45709 l -3e-5,-9e-5 -1.42322,-1.23508 c 0.14854,-0.69956 0.19297,-1.44479 0.12136,-2.22354 l 1.43732,-0.17276 c 0.5312,-0.065 0.77718,-0.53351 0.57519,-1.08847 l -0.92406,-2.53884 c -0.20199,-0.55495 -0.78904,-1.0234505 -1.36754,-1.0884705 l -1.54161,-0.17268 c -0.48373,-0.77021 -1.05485,-1.50701 -1.69266,-2.19805 l 0.49139,-1.1501 c 0.18743,-0.43783 -0.0789,-1.06255 -0.61262,-1.457 l -1.1e-4,-9e-5 -2.44202,-1.79032 c -0.53806,-0.39447 -1.17555,-0.42921 -1.48711,-0.0825 l -0.79411,0.88432 c -0.8796,-0.42431 -1.77274,-0.74861 -2.66547,-0.96888 l -0.69444,-1.44496 c -0.26696,-0.55481999 -0.88715,-0.97135999 -1.44211,-0.97135999 z m 0.0155,0.0426 h 2.53875 c 0.5337,0 1.1293,0.39999 1.38616,0.93381999 l 0.70788,1.47295 0.0154,0.004 c 0.8992,0.22065 1.79877,0.54731 2.68455,0.97585 l 0.0153,0.007 0.80997,-0.90209 c 0.29981,-0.33367 0.91183,-0.30026 1.42945,0.0792 l 2.44194,1.79031 c 0.5134,0.37952 0.76932,0.97945 0.58902,1.40061 l -0.50081,1.17211 0.0115,0.0125 c 0.64365,0.69592 1.21929,1.43843 1.70556,2.21483 l 0.009,0.014 1.57107,0.176 c 0.5566,0.0626 1.12039,0.5125805 1.31464,1.0462805 l 0.92406,2.53883 c 0.19425,0.5337 -0.0419,0.98373 -0.55301,1.04629 l -1.46412,0.176 0.001,0.0138 c 0.0735,0.78485 0.0286,1.53587 -0.12232,2.24032 l -0.003,0.0125 1.44893,1.25733 c 0.48699,0.42126 0.67202,1.0212 0.43065,1.40069 l -1.14138,1.79455 c -0.24294,0.37527 -0.82923,0.41275 -1.37181,0.0792 h -8e-5 l -1.64116,-1.00824 -0.01,0.007 c -0.5704,0.40311 -1.22148,0.71279 -1.94351,0.9207 l -0.0126,0.004 0.40618,1.63466 c 0.13172,0.53379 -0.17274,0.93374 -0.70644,0.93374 h -2.5388 c -0.5337,0 -1.12928,-0.39991 -1.38614,-0.93374 l -0.8137,-1.69389 -0.0152,-0.004 c -0.81976,-0.21216 -1.64215,-0.51336 -2.4531,-0.89952 l -0.0152,-0.007 -0.9375,1.04237 c -0.29982,0.33368 -0.91179,0.30035 -1.42942,-0.0792 l -2.44759,-1.79444 -1.2e-4,-9e-5 c -0.5134,-0.37952 -0.76923,-0.97945 -0.58893,-1.40061 l 0.5684,-1.32527 -0.0116,-0.0125 c -0.59964,-0.64493 -1.13841,-1.33234 -1.60579,-2.04522 l -0.009,-0.0135 -0.0147,-0.002 -1.7196,-0.19136 c -0.5566,-0.0626 -1.1203,-0.51258 -1.31455,-1.04628 l -0.92406,-2.53884 c -0.19424,-0.53367 0.0419,-0.98369 0.55284,-1.0462805 l 1.51399,-0.18023 -0.002,-0.0143 c -0.089,-0.78066 -0.0653,-1.53168 0.0686,-2.236 l 0.002,-0.0124 -1.44135,-1.24861 c -0.487,-0.42126 -0.672,-1.02112 -0.43063,-1.40061 l 1.14142,-1.79447 6e-5,-8e-5 c 0.24293,-0.37527 0.82919,-0.41283 1.37176,-0.0792 l 1.52168,0.93623 0.01,-0.008 c 0.58462,-0.44553 1.26302,-0.78494 2.02129,-1.00982 l 0.0126,-0.004 -0.36435,-1.47296 c -0.13174,-0.53382999 0.1727,-0.93381999 0.7064,-0.93381999 z m 3.96929,7.41225999 c -2.32494,0 -3.52928,1.89366 -2.68307,4.2186005 0.84621,2.32495 3.42904,4.21852 5.75393,4.21852 2.32495,0 3.52932,-1.89357 2.6831,-4.21852 -0.8462,-2.3249405 -3.42901,-4.2186005 -5.75396,-4.2186005 z m 0.0155,0.0426 c 2.30186,0 4.85815,1.87422 5.69596,4.1760805 0.83781,2.30186 -0.3542,4.17599 -2.65606,4.17599 -2.30181,0 -4.85811,-1.87413 -5.69592,-4.17599 -0.83781,-2.3018605 0.35417,-4.1760805 2.65602,-4.1760805 z"
       id="path4930"
       inkscape:connector-curvature="0" />
    <path
       style="color:#000000;font-style:normal;font-variant:normal;font-weight:normal;font-stretch:normal;font-size:medium;line-height:normal;font-family:sans-serif;font-variant-ligatures:normal;font-variant-position:normal;font-variant-caps:normal;font-variant-numeric:normal;font-variant-alternates:normal;font-feature-settings:normal;text-indent:0;text-align:start;text-decoration:none;text-decoration-line:none;text-decoration-style:solid;text-decoration-color:#000000;letter-spacing:normal;word-spacing:normal;text-transform:none;writing-mode:lr-tb;direction:ltr;text-orientation:mixed;dominant-baseline:auto;baseline-shift:baseline;text-anchor:start;white-space:normal;shape-padding:0;clip-rule:nonzero;display:inline;overflow:visible;visibility:visible;opacity:1;isolation:auto;mix-blend-mode:normal;color-interpolation:sRGB;color-interpolation-filters:linearRGB;solid-color:#000000;solid-opacity:1;vector-effect:none;fill-opacity:1;fill-rule:nonzero;stroke:#000000;stroke-width:1.05833333;stroke-linecap:butt;stroke-linejoin:miter;stroke-miterlimit:4;stroke-dasharray:none;stroke-dashoffset:0;stroke-opacity:1;color-rendering:auto;image-rendering:auto;shape-rendering:auto;text-rendering:auto;enable-background:accumulate"
       d="m 66.149829,22.023849 -1.13159,0.26066 c -0.35329,0.0822 -0.49159,0.40973 -0.31572,0.76497 l 0.32602,0.66042 c -0.36706,0.21738 -0.67904,0.48714 -0.92646,0.80512 l -0.78759,-0.28931 -3e-5,-5e-5 c -0.41429,-0.15144 -0.7986,-0.0379 -0.8958,0.2657 l 3e-5,5e-5 -0.30599,0.97234 5e-5,-10e-6 c -0.0973,0.30365 0.12583,0.70041 0.51693,0.92095 l 0.79485,0.45107 c 0.025,0.40823 0.11037,0.82793 0.25461,1.25089 l -0.66277,0.246 c -0.32686,0.12041 -0.40922,0.47593 -0.19374,0.82268 l 3e-5,6e-5 0.69609,1.10814 c 0.21835,0.34625 0.66701,0.57988 1.04546,0.539 l 0.81191,-0.0873 c 0.33702,0.34051 0.70876,0.6562 1.10833,0.94513 l -0.10704,0.70198 c -0.0487,0.32373 0.21844,0.70846 0.624,0.89701 l 1.29143,0.59973 c 0.40566,0.18856 0.81944,0.11883 0.96085,-0.16106 l 0.30935,-0.60263 c 0.47347,0.11559 0.94386,0.18596 1.39894,0.20434 l 0.56605,0.73866 c 0.25656,0.33507 0.72108,0.52742 1.07592,0.44796 l 1.13164,-0.26065 c 0.3533,-0.0822 0.49161,-0.40971 0.31572,-0.76497 l -0.3695,-0.74818 c 0.34986,-0.20326 0.65041,-0.45378 0.89622,-0.74533 l 0.85988,0.31455 c 0.41422,0.15144 0.79862,0.038 0.89587,-0.26566 l 0.30883,-0.96688 c 0.0972,-0.30364 -0.12594,-0.70046 -0.51701,-0.921 l -0.79746,-0.45054 c -0.0137,-0.40983 -0.0891,-0.8338 -0.22913,-1.2604 l 0.63697,-0.2366 c 0.32686,-0.12042 0.40922,-0.47593 0.19374,-0.82269 l -4e-5,-6e-5 -0.69607,-1.10814 c -0.21834,-0.34626 -0.66702,-0.57988 -1.04547,-0.539 l -0.72397,0.078 c -0.35734,-0.37274 -0.7537,-0.71717 -1.18362,-1.02844 l 0.0944,-0.6092 -1e-5,-1.3e-4 c 0.0546,-0.32449 -0.21407,-0.71197 -0.61971,-0.90052 l -1.29143,-0.59974 c -0.40563,-0.18857 -0.81951,-0.11884 -0.96085,0.16106 l -0.26071,0.50779 c -0.51967,-0.13243 -1.03482,-0.20548 -1.53442,-0.22064 l -0.48202,-0.62712 5e-5,-10e-6 c -0.25655,-0.33507 -0.72108,-0.52742 -1.07597,-0.44796 z m 0.0168,0.0269 c 0.34115,-0.0763 0.7874,0.1085 1.03392,0.43047 l 0.4953,0.64441 0.0106,5.1e-4 c 0.5038,0.0144 1.02354,0.0881 1.5477,0.22258 l 0.0109,0.002 0.26818,-0.52236 3e-5,-5e-5 c 0.13584,-0.26905 0.53312,-0.33601 0.92306,-0.15472 l 1.29143,0.59973 c 0.38999,0.18127 0.64779,0.55312 0.59523,0.86517 l -3e-5,6e-5 -0.0969,0.62594 0.009,0.007 c 0.43447,0.31371 0.83462,0.66135 1.19475,1.03806 l 0.008,0.008 0.74354,-0.0801 c 0.36378,-0.0393 0.7945,0.18497 1.00447,0.51792 l 0.69605,1.10809 c 0.20706,0.33326 0.12788,0.67478 -0.18615,0.79047 l -6e-5,10e-6 -0.65381,0.24285 0.003,0.009 c 0.1422,0.43048 0.21833,0.85852 0.23124,1.27204 l 2.4e-4,0.009 0.81779,0.46201 c 0.3759,0.21196 0.59012,0.59281 0.49667,0.88472 l -0.30882,0.96688 c -0.0935,0.29196 -0.4624,0.40091 -0.86078,0.25526 l -0.88099,-0.32226 -0.005,0.006 c -0.24724,0.29479 -0.55057,0.54774 -0.90431,0.75214 l -0.008,0.005 0.37861,0.7666 c 0.16908,0.34149 0.0362,0.65591 -0.30351,0.73497 l -1.13142,0.26063 c -0.34105,0.0764 -0.78734,-0.10851 -1.03386,-0.43047 l -0.57919,-0.75578 -0.0104,-5.4e-4 c -0.45918,-0.0178 -0.93438,-0.0888 -1.41271,-0.20631 l -0.0108,-0.002 -0.31675,0.61701 -2e-5,6e-5 c -0.1359,0.26905 -0.53313,0.33601 -0.92313,0.15472 l -1.29137,-0.59972 c -0.38992,-0.18129 -0.64628,-0.55049 -0.59944,-0.86181 l -2e-5,-6e-5 0.10956,-0.71849 -0.009,-0.007 c -0.40428,-0.29159 -0.77992,-0.61059 -1.11983,-0.95498 l -0.008,-0.008 -0.83109,0.0893 c -0.36378,0.0393 -0.7945,-0.18497 -1.00447,-0.51792 l -0.69605,-1.10804 -2e-5,-5e-5 c -0.20709,-0.33329 -0.12786,-0.67477 0.1862,-0.79048 l 0.67978,-0.25237 -0.003,-0.009 c -0.14646,-0.42699 -0.23262,-0.85078 -0.25701,-1.2627 l -4.9e-4,-0.009 -0.81465,-0.46223 -3e-5,-5e-5 c -0.37589,-0.21196 -0.59007,-0.59281 -0.49656,-0.88472 l 0.30594,-0.97233 c 0.0935,-0.29194 0.46228,-0.40089 0.86073,-0.25525 l -3e-5,-6e-5 0.80924,0.29734 0.005,-0.007 c 0.24854,-0.32128 0.56326,-0.59331 0.9342,-0.81181 l 0.008,-0.005 -0.33508,-0.67874 c -0.16906,-0.34148 -0.0363,-0.65591 0.30346,-0.73497 z m 2.0739,3.92499 c -0.0796,0.01 -0.15796,0.0234 -0.23479,0.0412 -1.23093,0.28108 -1.61766,1.49193 -0.86056,2.6962 0.75414,1.20467 2.37141,1.95569 3.60096,1.67188 1.23097,-0.28101 1.61773,-1.49185 0.86065,-2.69615 l -3e-5,-5e-5 c -0.70703,-1.12936 -2.17267,-1.86001 -3.36624,-1.71308 z m 0.014,0.0274 c 1.17902,-0.1452 2.62632,0.57632 3.32475,1.692 l 3e-5,6e-5 c 0.74795,1.18972 0.36605,2.38533 -0.85002,2.66295 l -5e-5,10e-6 c -1.21466,0.28039 -2.81166,-0.4612 -3.55666,-1.65127 -0.74793,-1.1897 -0.36606,-2.38536 0.85,-2.663 l 6e-5,-10e-6 c 0.0759,-0.0175 0.15327,-0.0311 0.2319,-0.0407 z"
       id="path4932"
       inkscape:connector-curvature="0" />
    <path
       style="color:#000000;font-style:normal;font-variant:normal;font-weight:normal;font-stretch:normal;font-size:medium;line-height:normal;font-family:sans-serif;font-variant-ligatures:normal;font-variant-position:normal;font-variant-caps:normal;font-variant-numeric:normal;font-variant-alternates:normal;font-feature-settings:normal;text-indent:0;text-align:start;text-decoration:none;text-decoration-line:none;text-decoration-style:solid;text-decoration-color:#000000;letter-spacing:normal;word-spacing:normal;text-transform:none;writing-mode:lr-tb;direction:ltr;text-orientation:mixed;dominant-baseline:auto;baseline-shift:baseline;text-anchor:start;white-space:normal;shape-padding:0;clip-rule:nonzero;display:inline;overflow:visible;visibility:visible;opacity:1;isolation:auto;mix-blend-mode:normal;color-interpolation:sRGB;color-interpolation-filters:linearRGB;solid-color:#000000;solid-opacity:1;vector-effect:none;fill-opacity:1;fill-rule:nonzero;stroke:#000000;stroke-width:1.05833333;stroke-linecap:butt;stroke-linejoin:miter;stroke-miterlimit:4;stroke-dasharray:none;stroke-dashoffset:0;stroke-opacity:1;color-rendering:auto;image-rendering:auto;shape-rendering:auto;text-rendering:auto;enable-background:accumulate"
       d="m 57.283749,15.464699 -0.73764,0.0648 c -0.23037,0.0208 -0.3466,0.21542 -0.26685,0.45528 l 0.14766,0.44584 c -0.25099,0.10492 -0.47181,0.24777 -0.65611,0.42677 l -0.47189,-0.25216 -10e-6,-4e-5 c -0.24829,-0.13217 -0.50102,-0.0944 -0.58918,0.0888 l 2e-5,3e-5 -0.27899,0.5871 h 3e-5 c -0.0882,0.18319 0.0177,0.45344 0.24526,0.62721 l 0.46221,0.35497 c -0.0202,0.26003 -0.003,0.53261 0.0505,0.81245 l -0.44026,0.0969 c -0.21706,0.0472 -0.30042,0.26449 -0.19491,0.50249 l 10e-6,3e-5 0.34189,0.76124 c 0.10736,0.23793 0.37013,0.42505 0.61273,0.4326 l 0.52046,0.0165 c 0.18282,0.24477 0.38975,0.47693 0.61662,0.69464 l -0.1295,0.4339 c -0.0593,0.20015 0.0755,0.46669 0.31498,0.62153 l 0.76271,0.49265 c 0.23957,0.15485 0.50705,0.1473 0.62103,-0.017 l 0.24851,-0.35331 c 0.28883,0.11476 0.5797,0.20068 0.86548,0.25242 l 0.29236,0.51641 c 0.13246,0.23424 0.40889,0.39669 0.63999,0.3778 l 0.73767,-0.0648 c 0.23037,-0.0208 0.34662,-0.2154 0.26686,-0.45528 l -0.16737,-0.50509 c 0.23887,-0.0975 0.45078,-0.22924 0.63173,-0.39169 l 0.51532,0.27448 c 0.24826,0.13218 0.50103,0.0944 0.58923,-0.0888 l 0.2803,-0.58341 c 0.0882,-0.18319 -0.0178,-0.45348 -0.24528,-0.62725 l -0.46391,-0.35486 c 0.0275,-0.26004 0.0172,-0.53445 -0.0336,-0.81622 l 0.42314,-0.0933 c 0.21706,-0.0472 0.30042,-0.26448 0.19491,-0.50248 l -1e-5,-3e-5 -0.34189,-0.76124 c -0.10736,-0.23793 -0.37012,-0.42504 -0.61273,-0.4326 l -0.46411,-0.0146 c -0.19281,-0.26692 -0.41275,-0.5194 -0.65682,-0.75389 l 0.11335,-0.37642 1e-5,-8e-5 c 0.0631,-0.20012 -0.0724,-0.46853 -0.31197,-0.62338 l -0.76272,-0.49264 c -0.23954,-0.15487 -0.50707,-0.14733 -0.62102,0.017 l -0.20942,0.2977 c -0.31653,-0.12946 -0.63543,-0.22103 -0.94962,-0.27466 l -0.24912,-0.43857 h 4e-5 c -0.13247,-0.23423 -0.40888,-0.39668 -0.64002,-0.37779 z m 0.008,0.0185 c 0.22217,-0.0181 0.48771,0.13796 0.61501,0.36304 l 0.25598,0.45064 0.007,10e-4 c 0.31689,0.0536 0.63864,0.14593 0.95782,0.27705 l 0.007,0.003 0.21545,-0.30625 1e-5,-3e-5 c 0.10952,-0.15794 0.36633,-0.16519 0.59661,-0.0163 l 0.76271,0.49265 c 0.23031,0.14887 0.36034,0.40644 0.29963,0.59889 l -3e-5,4e-5 -0.11639,0.38676 0.005,0.005 c 0.24673,0.23643 0.46879,0.49127 0.663,0.76094 l 0.005,0.006 0.47665,0.015 c 0.23321,0.007 0.48545,0.18688 0.5887,0.41567 l 0.34188,0.76119 c 0.10136,0.22874 0.0213,0.43744 -0.18727,0.48281 h -4e-5 l -0.43433,0.0957 10e-4,0.006 c 0.0518,0.28441 0.0622,0.56144 0.0338,0.82374 l -5.6e-4,0.006 0.47574,0.36391 c 0.2187,0.16701 0.32041,0.42643 0.23566,0.60254 l -0.2803,0.58341 c -0.0848,0.17613 -0.32739,0.21241 -0.56614,0.0853 l -0.52798,-0.28121 -0.004,0.003 c -0.18215,0.16438 -0.39602,0.29738 -0.63744,0.39527 l -0.005,0.002 0.1715,0.51753 c 0.0766,0.23059 -0.035,0.41744 -0.25651,0.43741 l -0.73753,0.0648 c -0.22213,0.0182 -0.48767,-0.13796 -0.61498,-0.36303 l -0.29913,-0.52839 -0.006,-10e-4 c -0.28843,-0.0517 -0.58227,-0.1385 -0.874,-0.25487 l -0.007,-0.003 -0.25445,0.36173 -3e-5,4e-5 c -0.10955,0.15793 -0.36631,0.16519 -0.59664,0.0163 l -0.76271,-0.49265 c -0.2303,-0.14889 -0.35964,-0.40466 -0.30261,-0.59715 l -1e-5,-4e-5 0.13256,-0.4441 -0.005,-0.005 c -0.22962,-0.2198 -0.43872,-0.45439 -0.62302,-0.70187 l -0.005,-0.006 -0.53275,-0.0169 c -0.23322,-0.007 -0.48546,-0.18688 -0.5887,-0.41567 l -0.34187,-0.76116 -10e-6,-4e-5 c -0.10142,-0.22875 -0.0213,-0.43743 0.18731,-0.48281 l 0.45157,-0.0994 -10e-4,-0.006 c -0.0548,-0.28259 -0.0719,-0.55783 -0.051,-0.82013 l 2.3e-4,-0.006 -0.47374,-0.36376 -10e-6,-4e-5 c -0.21871,-0.16701 -0.32038,-0.42643 -0.23561,-0.60254 l 0.27896,-0.5871 c 0.0848,-0.17613 0.32731,-0.21241 0.56611,-0.0853 l -2e-5,-4e-5 0.48485,0.25915 0.004,-0.004 c 0.1853,-0.18099 0.40804,-0.32504 0.66158,-0.43032 l 0.005,-0.002 -0.15177,-0.45821 c -0.0767,-0.23056 0.0349,-0.41743 0.25647,-0.4374 z m 0.9637,2.66171 c -0.0511,-8.4e-4 -0.1018,9.1e-4 -0.15191,0.005 -0.80219,0.069 -1.1532,0.79957 -0.78125,1.6269 0.37004,0.82731 1.3252,1.44424 2.12675,1.37343 0.8022,-0.0689 1.15324,-0.79952 0.7813,-1.62686 l -1e-5,-4e-5 c -0.34693,-0.7756 -1.20813,-1.36629 -1.97488,-1.37875 z m 0.006,0.0185 c 0.75742,0.0123 1.60783,0.59558 1.95054,1.36179 l 2e-5,4e-5 c 0.36745,0.81732 0.0208,1.53873 -0.77167,1.60682 h -4e-5 c -0.79185,0.07 -1.73503,-0.53921 -2.10059,-1.35651 -0.36745,-0.8173 -0.0208,-1.53875 0.77165,-1.60686 h 4e-5 c 0.0495,-0.004 0.0995,-0.006 0.15003,-0.005 z"
       id="path4932-2"
       inkscape:connector-curvature="0" />
  </g>
</svg>
