<?xml version="1.0" encoding="UTF-8" standalone="no"?>
<svg
   xmlns:dc="http://purl.org/dc/elements/1.1/"
   xmlns:cc="http://creativecommons.org/ns#"
   xmlns:rdf="http://www.w3.org/1999/02/22-rdf-syntax-ns#"
   xmlns:svg="http://www.w3.org/2000/svg"
   xmlns="http://www.w3.org/2000/svg"
   width="136.81697mm"
   height="98.112129mm"
   viewBox="0 0 136.81697 98.112131"
   version="1.1"
   id="svg3719">
  <defs
     id="defs3713">
    <filter
       style="color-interpolation-filters:sRGB"
       id="filter5420">
      <feGaussianBlur
         result="result0"
         in="SourceAlpha"
         stdDeviation="4"
         id="feGaussianBlur5414" />
      <feOffset
         dx="5"
         dy="5"
         result="result4"
         id="feOffset5416" />
      <feComposite
         in="SourceGraphic"
         in2="result4"
         operator="xor"
         result="result3"
         id="feComposite5418" />
    </filter>
  </defs>
  <metadata
     id="metadata3716">
    <rdf:RDF>
      <cc:Work
         rdf:about="">
        <dc:format>image/svg+xml</dc:format>
        <dc:type
           rdf:resource="http://purl.org/dc/dcmitype/StillImage" />
        <dc:title></dc:title>
      </cc:Work>
    </rdf:RDF>
  </metadata>
  <g
     id="layer1"
     transform="translate(-33.961183,-10.47305)">
    <path
       transform="matrix(0.98127646,-0.19260452,0.40673843,0.91354466,0,0)"
       style="fill:none;stroke:#000000;stroke-width:1.03519642;stroke-miterlimit:4;stroke-dasharray:none;stroke-opacity:1"
       d="m 34.133426,53.274442 0.371125,-15.503031 c 0.07617,-3.181734 2.548485,-5.714091 5.714091,-5.714091 h 54.345042 c 3.165606,0 5.714086,2.548484 5.714086,5.714091 V 73.32573 c 0,3.165607 -2.54848,5.714092 -5.714086,5.714092 H 40.218642 c -3.165606,0 -5.714091,-2.548485 -5.714091,-5.714092 V 57.490156"
       id="rect3723" />
    <path
       transform="matrix(0.97895789,-0.20406236,0.91131015,0.41172056,0,0)"
       style="fill:none;stroke:#000000;stroke-width:1.33171248;stroke-miterlimit:4;stroke-dasharray:none;stroke-opacity:1"
       d="m -24.321099,197.85242 -39.261845,0.027 c -3.231925,0.002 -5.830562,-2.60043 -5.830562,-5.83056 v -36.27901 c 0,-3.23013 2.600431,-5.83057 5.830562,-5.83057 h 50.165522 c 3.230131,0 5.8305613,2.60044 5.8305613,5.83057 v 36.27901 c 0,3.23013 -2.6004303,5.83056 -5.8305613,5.83056 h -6.681679"
       id="rect3723-5" />
    <path
       transform="matrix(0.97895789,-0.20406236,0.91131015,0.41172056,0,0)"
       style="fill:none;stroke:#000000;stroke-width:1.33171248;stroke-miterlimit:4;stroke-dasharray:none;stroke-opacity:1"
       d="m -25.248211,187.61868 -28.634103,0.0659 c -3.236147,0.007 -5.830561,-2.60043 -5.830561,-5.83056 v -36.27901 c 0,-3.23013 2.60043,-5.83056 5.830561,-5.83056 h 50.1655219 c 3.23013114,0 5.8305616,2.60043 5.8305616,5.83056 v 36.27901 c 0,3.23013 -2.61600124,5.8498 -5.8305616,5.83056 l -17.4415209,-0.10441"
       id="rect3723-3" />
    <path
       transform="matrix(0.98127646,-0.19260452,0.40673843,0.91354466,0,0)"
       style="fill:none;fill-opacity:1;stroke:#000000;stroke-width:1.03519642;stroke-miterlimit:4;stroke-dasharray:none;stroke-opacity:1"
       d="m 30.253517,64.098121 0.232811,-19.408036 c 0.03807,-3.173885 2.548485,-5.714091 5.714091,-5.714091 h 54.345034 c 3.165607,0 5.714091,2.548485 5.714091,5.714091 v 35.55432 c 0,3.165606 -2.548484,5.714091 -5.714091,5.714091 H 36.200419 c -3.165606,0 -5.660614,-2.560849 -5.714091,-5.714091 L 30.289811,68.656988"
       id="rect3723-56" />
    <path
       style="fill:none;stroke:#000000;stroke-width:1.02205884;stroke-linecap:butt;stroke-linejoin:miter;stroke-miterlimit:4;stroke-dasharray:none;stroke-opacity:1"
       d="m 55.602886,32.899837 c 0,0 4.477381,-0.927608 4.040738,-1.41555 -1.052862,-1.176562 -3.609484,-3.555828 -3.088465,-2.367823 1.917195,4.371451 10.598164,24.21254 12.571594,28.723123 0.296227,0.611893 0.735835,0.854213 1.464686,0.711295 l 46.557981,-8.872936 c 0.55265,-0.08363 0.45123,-0.08788 -0.0136,-0.26992 l -2.79448,-1.094553 c -0.77111,-0.29949 -0.69261,-0.418188 -0.4853,0.370153 l 0.94268,3.584926"
       id="path4703" />
    <path
       style="fill:none;stroke:#000000;stroke-width:0.79374999;stroke-linecap:butt;stroke-linejoin:miter;stroke-miterlimit:4;stroke-dasharray:none;stroke-opacity:1"
       d="m 144.36325,76.160045 4.05017,-0.872319 c 0.86148,-0.137133 1.49715,-0.20455 2.36959,0.0677 l 2.65712,0.829152 c 1.64704,0.440516 1.07192,0.352924 -0.18055,0.630619 l -37.02718,8.209724 c -1.14575,0.163439 -1.80725,0.202213 -2.85027,-0.0097 l -2.27972,-0.646611 c -2.81666,-0.641657 -1.8022,-0.657041 0.45272,-1.142694 v 2.91e-4 l 29.12285,-6.404704"
       id="path4715" />
    <path
       style="fill:#fffaff;fill-opacity:1;stroke:#f6fff9;stroke-width:0.89105052;stroke-miterlimit:4;stroke-dasharray:none;stroke-opacity:1"
       id="path5162"
       d="m -29.700958,-142.44331 a 5.6751442,5.3038721 0 0 1 5.638425,-5.30376 5.6751442,5.3038721 0 0 1 5.711388,5.23512 5.6751442,5.3038721 0 0 1 -5.564517,5.37151 5.6751442,5.3038721 0 0 1 -5.783396,-5.16562"
       transform="scale(-1)" />
    <path
       style="fill:#000000;fill-opacity:1;stroke:#000000;stroke-width:0.79374999;stroke-linecap:butt;stroke-linejoin:miter;stroke-miterlimit:4;stroke-dasharray:none;stroke-opacity:1"
       d="m 96.08652,24.327975 11.1503,-2.078869"
       id="path107" />
    <path
       style="fill:#000000;fill-opacity:1;stroke:#000000;stroke-width:0.79374999;stroke-linecap:butt;stroke-linejoin:miter;stroke-miterlimit:4;stroke-dasharray:none;stroke-opacity:1"
       d="m 97.50393,26.879315 11.1503,-2.078869"
       id="path107-3" />
    <path
       style="fill:#000000;fill-opacity:1;stroke:#000000;stroke-width:0.79374999;stroke-linecap:butt;stroke-linejoin:miter;stroke-miterlimit:4;stroke-dasharray:none;stroke-opacity:1"
       d="m 99.11033,29.430654 11.15029,-2.078869"
       id="path107-6" />
    <path
       style="fill:none;fill-opacity:1;stroke:#000016;stroke-width:1.0583334;stroke-miterlimit:4;stroke-dasharray:none;stroke-opacity:1"
       d="m 90.458749,93.239476 11.512851,5.20248 c 1.49607,0.676049 1.41176,1.638294 -0.16322,2.101644 l -24.889017,7.32217 c -1.57498,0.46335 -4.038076,0.27205 -5.52263,-0.42891 L 36.560574,90.988302 c -1.484554,-0.700961 -1.411761,-1.638295 0.163219,-2.101643 l 24.889015,-7.322172 c 1.57498,-0.463348 4.038076,-0.272054 5.52263,0.428907 l 19.997027,9.44198"
       id="rect5495" />
    <path
       style="fill:none;fill-opacity:1;stroke:#000016;stroke-width:1.05833328;stroke-miterlimit:4;stroke-dasharray:none;stroke-opacity:1"
       d="m 89.4081,87.89122 11.70674,5.433443 c 1.48914,0.691161 1.41176,1.638295 -0.16322,2.101643 l -24.889018,7.322174 c -1.57498,0.46334 -4.038067,0.27206 -5.52263,-0.42891 L 35.703822,85.871012 c -1.484562,-0.700965 -1.41176,-1.638295 0.16322,-2.101643 l 24.889014,-7.322171 c 1.57498,-0.463348 4.038068,-0.272059 5.52263,0.428906 l 20.090926,9.486317"
       id="rect5495-5" />
    <path
       style="fill:none;stroke:#000000;stroke-width:0.79375;stroke-miterlimit:4;stroke-dasharray:none;stroke-opacity:1"
       d="m 164.2039,51.704072 0.0202,17.593829 c 0.002,1.757752 -1.23895,1.714605 -1.23895,1.714605 m -6.30614,0.01077 c -4.60262,0.137256 -8.79937,-0.78547 -9.39826,-2.150141 l -0.24549,-17.277041"
       id="rect25" />
    <path
       style="fill:none;stroke:#000000;stroke-width:0.79374999;stroke-miterlimit:4;stroke-dasharray:none;stroke-opacity:1"
       d="m 153.24299,49.690597 c 2.3226,-0.03813 0.31165,-0.03813 2.3226,-0.03813 4.77081,10e-7 8.63831,1.063565 8.63831,2.375537 0,1.311972 -3.8675,2.375535 -8.63831,2.375536 -4.77081,10e-7 -8.63832,-1.063563 -8.63832,-2.375536 0,-0.758963 0.75972,-1.30116 2.7744,-1.736056"
       id="path833" />
    <path
       style="fill:none;stroke:#000000;stroke-width:0.79374999;stroke-linecap:butt;stroke-linejoin:miter;stroke-miterlimit:4;stroke-dasharray:none;stroke-opacity:1"
       d="m 164.18791,56.111603 c 5.67651,0.554446 6.60466,9.244673 0.14174,10.205358"
       id="path837" />
    <path
       style="fill:none;stroke:#000000;stroke-width:0.79374999;stroke-linecap:butt;stroke-linejoin:miter;stroke-miterlimit:4;stroke-dasharray:none;stroke-opacity:1"
       d="m 155.19419,46.934218 c 0,0 -2.12908,-1.288034 -2.07888,-4.724702 0.0451,-3.085521 2.59285,-2.860961 3.15185,-5.872708 0.64635,-3.48236 -1.54545,-6.411518 -1.54545,-6.411518"
       id="path871" />
    <path
       style="fill:none;stroke:#000000;stroke-width:0.79374999;stroke-linecap:butt;stroke-linejoin:miter;stroke-miterlimit:4;stroke-dasharray:none;stroke-opacity:1"
       d="m 159.80529,47.685323 c 0,0 -1.53539,-0.928871 -1.49919,-3.407238 0.0325,-2.225135 1.86985,-2.063193 2.27297,-4.235126 0.46612,-2.511318 -1.11451,-4.623692 -1.11451,-4.623692"
       id="path871-5" />
    <path
       style="fill:none;stroke:#000000;stroke-width:0.79374999;stroke-linecap:butt;stroke-linejoin:miter;stroke-miterlimit:4;stroke-dasharray:none;stroke-opacity:1"
       d="m 149.93451,47.418365 c 0,0 -1.28803,-0.779219 -1.25766,-2.858294 0.0273,-1.866642 1.56859,-1.73079 1.90677,-3.552801 0.39102,-2.106717 -0.93495,-3.878764 -0.93495,-3.878764"
       id="path871-3" />
    <path
       style="fill:none;stroke:#000000;stroke-width:0.79374999;stroke-linecap:butt;stroke-linejoin:miter;stroke-miterlimit:4;stroke-dasharray:none;stroke-opacity:1"
       d="m 161.21708,52.201747 c 0,0 -0.97793,0.460486 -2.20899,0.533328 -3.51938,0.208243 -9.53151,-0.07649 -8.68224,-0.733779 1.46616,-1.134722 6.94901,-0.734993 6.94901,-0.734993"
       id="path894" />
    <path
       style="fill:#d8181f;stroke-width:0.01657531"
       d="m 64.042943,97.221286 c 0.167632,-0.06177 0.451392,-0.161579 0.630578,-0.221797 0.179187,-0.06022 0.04204,-0.0097 -0.304783,0.11231 -0.346819,0.121989 -0.493426,0.171256 -0.325795,0.109492 z m 1.924335,-0.676836 c 0.176895,-0.06502 0.471302,-0.168564 0.654234,-0.230109 0.182934,-0.06154 0.0382,-0.0083 -0.321628,0.118208 -0.359828,0.12656 -0.509502,0.176915 -0.332606,0.111901 z m 11.657786,-4.100313 4.807224,-1.695218 -0.752971,-0.436597 -0.75297,-0.436598 0.770472,0.439184 0.770464,0.439184 -4.824723,1.692631 -4.824725,1.692631 4.807226,-1.695219 z m -17.822649,2.606316 c -3.566587,-2.049144 -3.933691,-2.257922 -3.966683,-2.255917 -0.06457,0.0039 -1.42277,0.488267 -1.402255,0.500053 0.01034,0.006 0.01172,0.0133 0.0031,0.01636 -0.01024,0.0036 -0.276037,-0.143993 -0.758957,-0.421447 -0.482919,-0.277457 -0.737673,-0.428936 -0.727429,-0.43254 0.0087,-0.0031 0.02423,-6.8e-4 0.03458,0.0052 0.0124,0.0071 0.468108,-0.147218 1.335166,-0.452181 l 1.31635,-0.462989 4.647309,2.670062 4.647312,2.670061 -0.599058,0.210703 -0.599057,0.210701 z m 0.796139,-1.324055 c -3.908506,-2.245589 -5.066904,-2.907154 -5.098972,-2.912036 -0.03135,-0.0047 -0.27201,0.07476 -0.984224,0.325259 l -0.942728,0.331578 -0.732247,-0.420705 c -0.402736,-0.231387 -0.749946,-0.426884 -0.771577,-0.434437 -0.03571,-0.01247 0.108463,-0.06571 1.564158,-0.577715 1.455695,-0.512 1.605349,-0.562096 1.62368,-0.543518 0.0111,0.01126 2.63573,1.523194 5.832496,3.35986 l 5.812302,3.339395 -0.622705,0.219019 -0.622704,0.219018 z m 11.981299,0.458755 c -0.304399,0.08486 -0.808299,0.195234 -1.170963,0.256486 -0.359865,0.06078 -0.633894,0.09116 -1.013263,0.112343 -0.931933,0.05204 -1.821881,0.0035 -2.890517,-0.157656 -0.870182,-0.131228 -1.58995,-0.289222 -2.368798,-0.51997 -1.149339,-0.340511 -2.104401,-0.732214 -3.016905,-1.237333 -0.698902,-0.386879 -1.197196,-0.730365 -1.669056,-1.150521 -0.669371,-0.596024 -1.070071,-1.207746 -1.181498,-1.803715 -0.145684,-0.779201 0.219852,-1.421422 1.086882,-1.909578 0.162165,-0.0913 0.246982,-0.126233 0.658782,-0.271303 0.374746,-0.132016 0.518833,-0.176274 0.695583,-0.213653 1.018198,-0.215329 2.096977,-0.263672 3.406821,-0.152664 0.473404,0.04011 1.415468,0.178059 1.905371,0.27899 1.261264,0.259848 2.48007,0.650898 3.568493,1.144941 0.224932,0.102099 0.524306,0.250677 0.847732,0.420724 l 0.14399,0.07571 -0.621788,0.218696 -0.621788,0.218696 -0.0989,-0.05671 c -0.239037,-0.137044 -0.73947,-0.368835 -1.117731,-0.517709 -1.254711,-0.493822 -2.633504,-0.79895 -3.946473,-0.87336 -0.614234,-0.03481 -1.334207,-0.005 -1.832844,0.07579 -1.331681,0.215854 -2.135053,0.784216 -2.188221,1.5481 -0.0097,0.139045 0.06325,0.5038 0.129539,0.647932 0.180707,0.392888 0.488493,0.765623 0.937836,1.135735 0.320652,0.264112 0.516184,0.39671 0.9622,0.652505 0.448436,0.257182 0.698794,0.379587 1.187012,0.580354 1.326898,0.54565 2.899909,0.886372 4.309639,0.93349 0.717708,0.02399 1.404924,-0.0446 2.160934,-0.215789 0.405702,-0.09185 1.132416,-0.339803 5.656779,-1.930093 l 4.450668,-1.564388 0.724378,0.416182 0.724381,0.416185 -4.870634,1.710063 c -2.678848,0.940535 -4.905284,1.719723 -4.94764,1.731528 z m 6.642659,-5.287355 c -0.408756,-0.234846 -0.573893,-0.331653 -0.366969,-0.215125 0.206924,0.116529 0.54136,0.308676 0.743194,0.426995 0.201833,0.118318 0.03254,0.02297 -0.376225,-0.21187 z m -8.873767,3.764558 c -0.630916,0.195353 -1.236727,0.295112 -1.805956,0.297389 -1.07574,0.0043 -2.271809,-0.216259 -3.336988,-0.615361 -2.128335,-0.797447 -3.211948,-2.088781 -2.467376,-2.940356 0.375505,-0.429469 1.248201,-0.695107 2.319003,-0.705877 1.139949,-0.01147 2.459207,0.249301 3.588465,0.7093 0.235394,0.09589 0.620484,0.275614 0.755117,0.352424 l 0.07086,0.04043 -0.588786,0.207089 -0.588787,0.20709 -0.173431,-0.08278 c -0.934029,-0.445812 -2.123891,-0.629192 -2.957398,-0.455789 -0.18872,0.03926 -0.461195,0.151504 -0.566074,0.233189 -0.195646,0.152379 -0.26765,0.306222 -0.239622,0.511974 0.03293,0.241709 0.208589,0.493012 0.509353,0.728687 0.194008,0.152022 0.570378,0.362029 0.86209,0.481027 0.417583,0.170347 0.843977,0.287699 1.294718,0.356329 0.714635,0.108813 1.216788,0.07075 1.95362,-0.148107 0.188038,-0.05584 2.133275,-0.733239 4.918461,-1.712753 l 4.607396,-1.620363 0.705566,0.405373 0.705562,0.405374 -4.626004,1.624275 c -2.544305,0.893351 -4.767211,1.667998 -4.939794,1.721435 z m -0.04625,-6.562701 c -0.376636,0.0477 -0.910671,-0.03664 -1.316931,-0.207987 -0.405436,-0.171002 -0.64901,-0.380342 -0.689848,-0.592892 -0.03605,-0.187642 0.08043,-0.318667 0.352299,-0.396282 0.239749,-0.06844 0.496407,-0.07572 0.828103,-0.02347 0.555402,0.08749 1.04888,0.321968 1.276345,0.606482 0.08412,0.105219 0.116603,0.276513 0.06803,0.358748 -0.07362,0.124654 -0.276868,0.224866 -0.518001,0.255407 z m 0.260875,-0.151952 c 0.300093,-0.172316 0.196341,-0.47523 -0.25108,-0.733055 -0.171184,-0.09864 -0.289776,-0.148349 -0.497607,-0.208559 -0.422664,-0.122447 -0.853192,-0.136038 -1.137838,-0.03592 -0.296681,0.104344 -0.362518,0.301266 -0.176302,0.527319 0.151719,0.184178 0.413124,0.333604 0.779792,0.445752 0.412794,0.126256 0.866547,0.149623 1.169586,0.06023 0.01847,-0.0054 0.06953,-0.03055 0.113449,-0.05577 z m -1.26799,-0.381227 -0.460968,-0.264845 0.205447,-0.07226 c 0.235668,-0.08289 0.317597,-0.09259 0.462375,-0.05476 0.173289,0.04529 0.299304,0.147864 0.243965,0.198584 -0.02787,0.02554 0.03476,0.05543 0.154238,0.07363 0.07503,0.01142 0.12164,0.02607 0.168414,0.05295 0.03557,0.02044 0.108468,0.05814 0.161991,0.08379 0.09705,0.0465 0.09719,0.04668 0.05017,0.06321 -0.04695,0.01651 -0.04774,0.01628 -0.187082,-0.0553 -0.227779,-0.117022 -0.313143,-0.13045 -0.504269,-0.07933 -0.16692,0.04464 -0.162461,0.05706 0.06811,0.189523 0.176683,0.101512 0.177239,0.101979 0.137987,0.115785 l -0.03941,0.01386 z m 0.362383,-0.183041 c 0.01008,-0.0779 -0.160975,-0.172005 -0.320747,-0.176465 -0.114693,-0.0033 -0.35315,0.07179 -0.332988,0.104709 0.0072,0.01183 0.07807,0.05889 0.157403,0.104598 0.19572,0.112755 0.223567,0.116633 0.376308,0.0524 0.08509,-0.03578 0.116513,-0.0581 0.120024,-0.08525 z m -8.831395,2.146683 c 0.0816,-0.03184 0.2164,-0.07924 0.299561,-0.105327 0.08315,-0.02609 0.01639,-4.2e-5 -0.148362,0.05788 -0.164759,0.05793 -0.232799,0.07928 -0.151199,0.04743 z"
       id="path940" />
    <path
       style="fill:none;stroke:#000000;stroke-width:0.79374999;stroke-linecap:butt;stroke-linejoin:miter;stroke-miterlimit:4;stroke-dasharray:none;stroke-opacity:1"
       d="m 164.32488,58.315561 c 5.67651,0.554446 6.60466,9.244673 0.14174,10.205358"
       id="path837-2" />
    <path
       style="fill:none;stroke:#000000;stroke-width:0.79374999;stroke-linecap:butt;stroke-linejoin:miter;stroke-miterlimit:4;stroke-dasharray:none;stroke-opacity:1"
       d="m 149.33841,56.6607 c 3.00312,0.8182 5.88352,1.349631 10.54029,0.243238 1.35569,-0.322097 1.78552,0.533833 1.76797,1.554019 l 0.14098,8.881703 c 0.081,1.035814 -0.2455,1.451638 -1.20949,1.553309 l -1.50686,0.05196"
       id="path1136" />
  </g>
  <path
     id="path845"
     d="m 37.935304,40.533613 c 0.149567,-0.523482 1.21389,-4.436945 1.799132,-6.590933 0.275066,-0.967589 0.578185,-1.071555 1.491873,-0.127492 l 4.50729,5.222735 c 0.664759,0.901316 1.102928,0.55785 1.288666,-0.67779 l 2.30014,-11.336404 c 0.323504,-0.850651 0.09923,-1.344812 1.37906,-0.544922 l 5.413824,3.38364 c 0.693038,0.536099 0.964023,0.387865 1.102077,-0.974259 L 58.61784,15.070189"
     style="fill:none;stroke:#ff0000;stroke-width:1.02208541;stroke-linecap:butt;stroke-linejoin:miter;stroke-miterlimit:4;stroke-dasharray:none;stroke-opacity:1" />
</svg>
