<?xml version="1.0" encoding="UTF-8" standalone="no"?>
<!-- Created with Inkscape (http://www.inkscape.org/) -->

<svg
   xmlns:dc="http://purl.org/dc/elements/1.1/"
   xmlns:cc="http://creativecommons.org/ns#"
   xmlns:rdf="http://www.w3.org/1999/02/22-rdf-syntax-ns#"
   xmlns:svg="http://www.w3.org/2000/svg"
   xmlns="http://www.w3.org/2000/svg"
   xmlns:sodipodi="http://sodipodi.sourceforge.net/DTD/sodipodi-0.dtd"
   xmlns:inkscape="http://www.inkscape.org/namespaces/inkscape"
   width="174.17798mm"
   height="146.53644mm"
   viewBox="0 0 174.17798 146.53644"
   version="1.1"
   id="svg3719"
   sodipodi:docname="drawing.svg"
   inkscape:version="0.92.3 (2405546, 2018-03-11)">
  <defs
     id="defs3713" />
  <sodipodi:namedview
     id="base"
     pagecolor="#ffffff"
     bordercolor="#666666"
     borderopacity="1.0"
     inkscape:pageopacity="0.0"
     inkscape:pageshadow="2"
     inkscape:zoom="0.98994949"
     inkscape:cx="495.65149"
     inkscape:cy="177.69745"
     inkscape:document-units="mm"
     inkscape:current-layer="layer1"
     showgrid="false"
     inkscape:window-width="1857"
     inkscape:window-height="1018"
     inkscape:window-x="63"
     inkscape:window-y="34"
     inkscape:window-maximized="1" />
  <metadata
     id="metadata3716">
    <rdf:RDF>
      <cc:Work
         rdf:about="">
        <dc:format>image/svg+xml</dc:format>
        <dc:type
           rdf:resource="http://purl.org/dc/dcmitype/StillImage" />
        <dc:title></dc:title>
      </cc:Work>
    </rdf:RDF>
  </metadata>
  <g
     inkscape:label="Layer 1"
     inkscape:groupmode="layer"
     id="layer1"
     transform="translate(-13.89611,-10.47305)">
    <path
       transform="matrix(0.98127646,-0.19260452,0.40673843,0.91354466,0,0)"
       style="fill:none;stroke:#000000;stroke-width:1.03519642;stroke-miterlimit:4;stroke-dasharray:none;stroke-opacity:1"
       d="m 34.133426,53.274442 0.371125,-15.503031 c 0.07617,-3.181734 2.548485,-5.714091 5.714091,-5.714091 h 54.345042 c 3.165606,0 5.714086,2.548484 5.714086,5.714091 V 73.32573 c 0,3.165607 -2.54848,5.714092 -5.714086,5.714092 H 40.218642 c -3.165606,0 -5.714091,-2.548485 -5.714091,-5.714092 V 57.490156"
       id="rect3723"
       inkscape:connector-curvature="0"
       sodipodi:nodetypes="cssssssssc" />
    <path
       transform="matrix(0.97895789,-0.20406236,0.91131015,0.41172056,0,0)"
       style="fill:none;stroke:#000000;stroke-width:1.33171248;stroke-miterlimit:4;stroke-dasharray:none;stroke-opacity:1"
       d="m -24.321099,197.85242 -39.261845,0.027 c -3.231925,0.002 -5.830562,-2.60043 -5.830562,-5.83056 v -36.27901 c 0,-3.23013 2.600431,-5.83057 5.830562,-5.83057 h 50.165522 c 3.230131,0 5.8305613,2.60044 5.8305613,5.83057 v 36.27901 c 0,3.23013 -2.6004303,5.83056 -5.8305613,5.83056 l -6.681679,0"
       id="rect3723-5"
       inkscape:connector-curvature="0"
       sodipodi:nodetypes="cssssssssc" />
    <path
       transform="matrix(0.97895789,-0.20406236,0.91131015,0.41172056,0,0)"
       style="fill:none;stroke:#000000;stroke-width:1.33171248;stroke-miterlimit:4;stroke-dasharray:none;stroke-opacity:1"
       d="m -25.248211,187.61868 -28.634103,0.0659 c -3.236147,0.007 -5.830561,-2.60043 -5.830561,-5.83056 v -36.27901 c 0,-3.23013 2.60043,-5.83056 5.830561,-5.83056 h 50.1655219 c 3.23013114,0 5.8305616,2.60043 5.8305616,5.83056 v 36.27901 c 0,3.23013 -2.61600124,5.8498 -5.8305616,5.83056 l -17.4415209,-0.10441"
       id="rect3723-3"
       inkscape:connector-curvature="0"
       sodipodi:nodetypes="cssssssssc" />
    <path
       transform="matrix(0.98127646,-0.19260452,0.40673843,0.91354466,0,0)"
       style="fill:none;fill-opacity:1;stroke:#000000;stroke-width:1.03519642;stroke-miterlimit:4;stroke-dasharray:none;stroke-opacity:1"
       d="m 30.253517,64.098121 0.232811,-19.408036 c 0.03807,-3.173885 2.548485,-5.714091 5.714091,-5.714091 h 54.345034 c 3.165607,0 5.714091,2.548485 5.714091,5.714091 v 35.55432 c 0,3.165606 -2.548484,5.714091 -5.714091,5.714091 H 36.200419 c -3.165606,0 -5.660614,-2.560849 -5.714091,-5.714091 L 30.289811,68.656988"
       id="rect3723-56"
       inkscape:connector-curvature="0"
       sodipodi:nodetypes="cssssssssc" />
    <path
       style="fill:none;stroke:#000000;stroke-width:1.02205884;stroke-linecap:butt;stroke-linejoin:miter;stroke-miterlimit:4;stroke-dasharray:none;stroke-opacity:1"
       d="m 55.602886,32.899837 c 0,0 4.477381,-0.927608 4.040738,-1.41555 -1.052862,-1.176562 -3.609484,-3.555828 -3.088465,-2.367823 1.917195,4.371451 10.598164,24.21254 12.571594,28.723123 0.296227,0.611893 0.735835,0.854213 1.464686,0.711295 l 46.557981,-8.872936 c 0.55265,-0.08363 0.45123,-0.08788 -0.0136,-0.26992 l -2.79448,-1.094553 c -0.77111,-0.29949 -0.69261,-0.418188 -0.4853,0.370153 l 0.94268,3.584926"
       id="path4703"
       inkscape:connector-curvature="0"
       sodipodi:nodetypes="cssccccccc" />
    <path
       style="fill:none;stroke:#000000;stroke-width:1.02205884;stroke-linecap:butt;stroke-linejoin:miter;stroke-miterlimit:4;stroke-dasharray:none;stroke-opacity:1"
       d="M 72.395394,51.028348 68.054615,35.324936 c -0.69763,-2.398069 -0.782256,-2.398696 0.878037,-0.532838 l 11.934838,13.41248 c 1.98357,2.273539 1.97059,2.444134 1.07906,-0.494615 l -2.37746,-7.83681 C 78.870194,37.449386 78.360243,36.933824 80.45921,38.8792 l 3.06673,2.842351 c 1.84857,1.852415 1.24192,1.132177 0.9714,-0.919274 l -1.23628,-9.375026 c -0.43912,-2.344674 -0.0923,-1.622283 1.12896,-0.119132 l 10.34769,12.735624 c 1.64817,2.125367 1.54173,2.112948 1.45977,-0.509826 l -0.15784,-5.050819 c -0.1646,-2.235962 -0.0516,-1.860276 1.24977,-0.32233 l 1.89487,2.239381"
       id="path4713"
       inkscape:connector-curvature="0"
       sodipodi:nodetypes="cccccccccccccccc" />
    <path
       style="fill:none;stroke:#000000;stroke-width:0.79374999;stroke-linecap:butt;stroke-linejoin:miter;stroke-miterlimit:4;stroke-dasharray:none;stroke-opacity:1"
       d="m 144.36325,76.160045 4.05017,-0.872319 c 0.86148,-0.137133 1.49715,-0.20455 2.36959,0.0677 l 2.65712,0.829152 c 1.64704,0.440516 1.07192,0.352924 -0.18055,0.630619 l -37.02718,8.209724 c -1.14575,0.163439 -1.80725,0.202213 -2.85027,-0.0097 l -2.27972,-0.646611 c -2.81666,-0.641657 -1.8022,-0.657041 0.45272,-1.142694 v 2.91e-4 l 29.12285,-6.404704"
       id="path4715"
       inkscape:connector-curvature="0"
       sodipodi:nodetypes="ccccccccccc" />
    <path
       style="fill:none;stroke:#ffffff;stroke-width:1.53308833;stroke-linecap:butt;stroke-linejoin:miter;stroke-miterlimit:4;stroke-dasharray:none;stroke-opacity:1"
       d="m 130.58011,23.510929 c 0,0 3.19544,19.934663 9.55002,27.101428 10.86563,12.25434 35.51369,7.785205 44.05249,21.758967 3.56287,5.830629 4.68914,13.280826 0.10692,18.268473 C 173.20561,102.70439 130.114,106.76643 106.8126,104.10037 69.763216,99.861311 36.846945,83.392873 26.919177,115.23771 c -4.394885,14.09727 -3.251727,32.0687 -3.251727,32.0687"
       id="path5160"
       inkscape:connector-curvature="0"
       sodipodi:nodetypes="cassssc" />
    <path
       style="fill:#fffaff;fill-opacity:1;stroke:#f6fff9;stroke-width:0.89105052;stroke-miterlimit:4;stroke-dasharray:none;stroke-opacity:1"
       id="path5162"
       sodipodi:type="arc"
       sodipodi:cx="-24.025814"
       sodipodi:cy="-142.44331"
       sodipodi:rx="5.6751442"
       sodipodi:ry="5.3038721"
       sodipodi:start="3.1415927"
       sodipodi:end="3.1157116"
       sodipodi:open="true"
       d="m -29.700958,-142.44331 a 5.6751442,5.3038721 0 0 1 5.638425,-5.30376 5.6751442,5.3038721 0 0 1 5.711388,5.23512 5.6751442,5.3038721 0 0 1 -5.564517,5.37151 5.6751442,5.3038721 0 0 1 -5.783396,-5.16562"
       transform="scale(-1)" />
    <path
       style="fill:#000000;fill-opacity:1;stroke:#000000;stroke-width:0.79374999;stroke-linecap:butt;stroke-linejoin:miter;stroke-miterlimit:4;stroke-dasharray:none;stroke-opacity:1"
       d="m 96.08652,24.327975 11.1503,-2.078869"
       id="path107"
       inkscape:connector-curvature="0" />
    <path
       style="fill:#000000;fill-opacity:1;stroke:#000000;stroke-width:0.79374999;stroke-linecap:butt;stroke-linejoin:miter;stroke-miterlimit:4;stroke-dasharray:none;stroke-opacity:1"
       d="m 97.50393,26.879315 11.1503,-2.078869"
       id="path107-3"
       inkscape:connector-curvature="0" />
    <path
       style="fill:#000000;fill-opacity:1;stroke:#000000;stroke-width:0.79374999;stroke-linecap:butt;stroke-linejoin:miter;stroke-miterlimit:4;stroke-dasharray:none;stroke-opacity:1"
       d="m 99.11033,29.430654 11.15029,-2.078869"
       id="path107-6"
       inkscape:connector-curvature="0" />
  </g>
</svg>
