<?xml version="1.0" encoding="UTF-8" standalone="no"?>
<svg
   xmlns:dc="http://purl.org/dc/elements/1.1/"
   xmlns:cc="http://creativecommons.org/ns#"
   xmlns:rdf="http://www.w3.org/1999/02/22-rdf-syntax-ns#"
   xmlns:svg="http://www.w3.org/2000/svg"
   xmlns="http://www.w3.org/2000/svg"
   id="SVGRoot"
   version="1.1"
   viewBox="0 0 800 600"
   height="600px"
   width="800px">
  <defs
     id="defs39" />
  <metadata
     id="metadata42">
    <rdf:RDF>
      <cc:Work
         rdf:about="">
        <dc:format>image/svg+xml</dc:format>
        <dc:type
           rdf:resource="http://purl.org/dc/dcmitype/StillImage" />
        <dc:title></dc:title>
      </cc:Work>
    </rdf:RDF>
  </metadata>
  <g
     id="layer1">
    <g
       id="g76"
       transform="translate(128.85715,-3.8272873)">
      <path
         id="path90"
         d="M 182.5,535.1502 C 130.16149,510.91037 89.780003,491.62033 86,489.05261 65.229332,474.94328 49.984898,453.39925 42.79952,428 c -1.960431,-6.92984 -2.153028,-10.49495 -2.533449,-46.89598 -0.333675,-31.92812 -0.160967,-39.55496 0.911105,-40.23468 1.696043,-1.07535 77.901924,-1.10585 79.594094,-0.0319 0.97546,0.6191 1.20815,5.56019 1,21.23468 L 121.5,382.5 l -19.35232,0.27195 -19.352317,0.27195 0.425808,16.22805 c 0.376446,14.3468 0.721341,17.00957 2.975137,22.9696 5.015384,13.26289 13.58977,24.3266 24.280682,31.32985 4.98397,3.26483 139.40515,65.4286 141.48096,65.4286 0.7688,0 1.00423,-19.78052 0.8123,-68.25 L 252.5,382.5 229.16236,344 c -12.83571,-21.175 -24.08571,-39.625 -25,-41 -1.55922,-2.34488 -1.69338,2.24661 -2.16236,74 -0.49386,75.56116 -0.52454,76.50308 -2.5,76.75136 -1.1,0.13825 -10.55,-3.73376 -21,-8.60447 l -19,-8.85584 V 326.89552 217.5 h 20.37426 20.37427 l 36.62573,60.24853 c 20.14416,33.13669 36.85074,60.2472 37.12574,60.24558 0.275,-0.002 16.98164,-27.11346 37.12587,-60.24853 L 347.75175,217.5 H 368.12587 388.5 v 109.35811 109.35812 l -19,8.89848 c -10.45,4.89416 -19.9,8.78301 -21,8.64188 C 346.5246,453.50316 346.49385,452.55896 346,377 l -0.5,-76.5 -2.5803,4 c -1.41916,2.2 -12.66916,20.65 -25,41 l -22.4197,37 -0.27025,68.25 c -0.19193,48.46948 0.0435,68.25 0.8123,68.25 2.07581,0 136.49699,-62.16377 141.48096,-65.4286 10.69091,-7.00325 19.2653,-18.06696 24.28068,-31.32985 2.2538,-5.96003 2.59869,-8.6228 2.97514,-22.9696 L 465.20464,383.0439 445.85232,382.77195 426.5,382.5 426.22873,362.07216 c -0.20815,-15.67449 0.0245,-20.61558 1,-21.23468 1.69217,-1.07399 77.89805,-1.04349 79.59409,0.0319 1.07208,0.67972 1.24478,8.30656 0.91111,40.23468 -0.38042,36.40103 -0.57302,39.96614 -2.53345,46.89598 -7.27196,25.7053 -22.76773,47.43231 -43.76036,61.35751 -6.6859,4.43501 -185.41634,87.74477 -187.84595,87.55869 C 272.99238,576.8701 232,558.0754 182.5,535.1502 Z M 40.614794,301.43855 C 40.276657,300.55738 40,245.92833 40,180.04066 40,80.225919 40.226955,60.056533 41.360705,59.115605 42.349681,58.294827 61.814345,58.056486 112.6107,58.24316 L 182.5,58.5 182.68062,76 c 0.0993,9.625 0.32434,18.85 0.5,20.5 l 0.31938,3 -50.5,0.5 -50.5,0.5 -0.5,101 -0.5,101 -20.135206,0.27034 c -17.705511,0.23772 -20.209393,0.077 -20.75,-1.33179 z M 466.46607,301.75 c -0.25914,-0.6875 -0.58252,-46.25 -0.71862,-101.25 L 465.5,100.5 415,100 l -50.5,-0.5 0.16695,-3 c 0.0918,-1.65 0.46482,-7.5 0.82889,-13 0.36407,-5.5 0.25487,-12.78359 -0.24266,-16.185755 -0.51925,-3.550721 -0.53169,-6.852098 -0.0292,-7.75 C 366.00504,58.168569 373.61595,58 435.84969,58 c 52.91691,0 70.03992,0.289606 70.95031,1.2 0.91997,0.919969 1.2,29.137381 1.2,120.91821 0,65.84502 -0.27314,120.43002 -0.60699,121.3 -0.52539,1.36915 -3.28543,1.58179 -20.53138,1.58179 -15.02157,0 -20.04034,-0.30759 -20.39556,-1.25 z m -203.6298,-34 -9.33627,-15.25 -0.5,-36 -0.5,-36 -46.67322,-0.25984 -46.67323,-0.25984 -12.20388,-20.06306 c -7.41776,-12.19474 -11.84351,-20.42342 -11.28498,-20.98195 0.53131,-0.53131 25.35923,-1.0278 58.86351,-1.1771 55.23187,-0.24612 57.9611,-0.34384 58.29676,-2.0873 0.72554,-3.76849 -0.80947,-6.20072 -5.45925,-8.65023 C 236.58683,121.34235 226.68668,109.37383 222.20395,96.602042 220.18083,90.837952 219.71372,87.616102 219.7245,79.5 219.7467,62.794276 225.20853,50.439039 237.62823,39 248.08423,29.369596 259.39388,25.023738 274,25.023738 c 14.60612,0 25.91577,4.345858 36.37177,13.976262 12.4197,11.439039 17.88155,23.794276 17.90373,40.5 0.0108,8.116102 -0.45633,11.337952 -2.47945,17.102042 -4.48273,12.771788 -14.38288,24.740308 -25.16176,30.418638 -4.64978,2.44951 -6.18479,4.88174 -5.45925,8.65023 0.33569,1.7436 3.07391,1.84115 58.58855,2.08715 56.2767,0.24937 58.23641,0.32143 58.23641,2.14146 0,1.03588 -5.21265,10.47783 -11.58368,20.98211 l -11.58367,19.0987 -46.66633,0.25984 L 295.5,180.5 l -0.5,36 -0.5,36 -9.38654,15.25 c -6.41663,10.42489 -9.94884,15.25 -11.16372,15.25 -1.21708,0 -4.71965,-4.80626 -11.11347,-15.25 z M 282.78984,97.097318 c 10.38097,-5.323671 13.89744,-16.311963 8.61349,-26.915474 -7.17828,-14.404933 -27.62838,-14.404933 -34.80666,0 -5.31304,10.661892 -1.74583,21.542433 8.90333,27.156523 4.20025,2.214314 12.73396,2.09534 17.28984,-0.241049 z"
         style="fill:#ceebef" />
      <path
         id="path88"
         d="M 185.39173,535.6237 C 137.48219,513.47366 95.632185,493.85781 92.391732,492.03293 72.676487,480.93016 55.516979,460.78007 47.435717,439.24194 41.364832,423.06185 40.916567,418.64239 41.223948,378 L 41.5,341.5 H 81 120.5 l 0.27071,20.25 0.2707,20.25 -18.2707,0.0153 c -10.048893,0.008 -18.889304,0.40715 -19.645362,0.88606 -2.270821,1.4384 -0.996715,29.72394 1.716132,38.09863 4.274506,13.19562 14.160058,26.22189 25.21534,33.22646 4.86683,3.0836 136.89999,64.36303 141.19318,65.5308 1.65433,0.44998 1.75,-3.2882 1.75,-68.3804 v -68.8564 L 227.95098,340.76022 C 214.17403,317.7921 202.47403,299 201.95098,299 201.35791,299 201,327.97916 201,376 c 0,74.66252 -0.057,77 -1.87776,77 C 197.22252,453 163.55788,437.70262 161.25,435.79067 160.26406,434.97387 160,411.86064 160,326.37756 V 218 h 19.83821 19.83821 l 36.75351,60.5 c 20.21443,33.275 37.11609,60.5 37.55925,60.5 0.44315,0 17.35085,-27.225 37.57266,-60.5 L 348.32875,218 H 368.16438 388 v 108.37756 c 0,85.48308 -0.26406,108.59631 -1.25,109.41311 C 384.44212,437.70262 350.77748,453 348.87776,453 347.057,453 347,450.66252 347,376 c 0,-46.25565 -0.36768,-77 -0.92087,-77 -0.50648,0 -12.20648,18.74096 -26,41.64657 L 295,382.29314 v 68.97006 c 0,65.20044 0.0956,68.94405 1.75,68.49406 4.29319,-1.16777 136.32635,-62.4472 141.19318,-65.5308 11.05528,-7.00457 20.94083,-20.03084 25.21534,-33.22646 2.71285,-8.37469 3.98695,-36.66023 1.71613,-38.09863 -0.75606,-0.47891 -9.59647,-0.87764 -19.64536,-0.88606 L 426.95859,382 427.22929,361.75 427.5,341.5 h 39.5 39.5 l 0.27605,36.5 c 0.30738,40.64239 -0.14088,45.06185 -6.21177,61.24194 -4.45338,11.86913 -11.59908,23.37173 -20.42771,32.88298 -9.06618,9.76715 -16.65858,15.68636 -27.39333,21.35646 -11.4113,6.02745 -177.46815,82.53075 -179.00129,82.46687 -0.68307,-0.0285 -40.44067,-18.1745 -88.35022,-40.32455 z M 42.68804,301.35471 C 42.309618,300.97628 42,246.51667 42,180.33333 V 60 l 69.75,9.37e-4 69.75,9.37e-4 v 19.489987 19.489987 l -50,0.259076 -50,0.259076 -0.5,101 -0.5,101 -18.56196,0.27137 c -10.209077,0.14926 -18.871577,-0.0382 -19.25,-0.41666 z m 424.78653,-0.58256 C 467.21075,300.07247 466.88355,254.5 466.74745,199.5 L 466.5,99.5 l -50,-0.259036 -50,-0.259036 V 79.491414 60.000899 l 69.75402,-4.5e-4 L 506.00803,60 505.75402,180.75 505.5,301.5 l -18.77289,0.27215 c -14.47491,0.20984 -18.8827,-0.0191 -19.25254,-1 z M 262.73678,265.88131 253,249.76262 V 214.88131 180 l -45.75,-0.0153 c -25.1625,-0.008 -46.25902,-0.34592 -46.88116,-0.75 -0.97821,-0.63535 -20.0181,-30.97378 -23.37445,-37.24518 -0.96056,-1.79482 -0.93007,-2.41546 0.15236,-3.10137 0.74429,-0.47163 27.11575,-0.86441 58.60325,-0.87283 L 253,138 v -4.40454 c 0,-4.30373 -0.12775,-4.47664 -5.58155,-7.55457 C 217.63214,109.23053 211.09526,68.776793 234.09276,43.574312 245.26028,31.336049 257.37723,26 274,26 c 16.62277,0 28.73972,5.336049 39.90724,17.574312 22.9975,25.202481 16.46062,65.656218 -13.32569,82.466578 C 295.12775,129.11882 295,129.29173 295,133.59546 V 138 h 57.37756 c 45.22772,0 57.60121,0.2695 58.43379,1.27269 0.78523,0.94614 -1.90635,6.14193 -10.49012,20.25 -6.3505,10.43752 -12.05821,19.30792 -12.6838,19.712 -0.62559,0.40408 -21.72493,0.74158 -46.88743,0.75 L 295,180 v 34.88131 34.88131 l -9.73678,16.11869 C 279.50483,275.414 274.90275,282 274,282 c -0.90275,0 -5.50483,-6.586 -11.26322,-16.11869 z m 19.7718,-167.746292 c 11.74279,-5.334637 15.64962,-19.186655 8.56304,-30.361035 -9.86682,-15.558358 -34.84629,-9.796353 -37.61654,8.676992 -1.8152,12.104643 8.14951,23.505101 20.54492,23.505101 2.475,0 6.30386,-0.819476 8.50858,-1.821058 z"
         style="fill:#afe4eb" />
      <path
         id="path86"
         d="M 184.22023,534.54454 C 136.21636,512.35095 93.91636,492.38262 90.220232,490.17048 70.272426,478.23165 54.624479,458.51904 46.822584,435.5 41.582737,420.04013 40.881601,412.47858 41.212799,375 L 41.5,342.5 H 81 120.5 v 19.5 19.5 l -19.23636,0.27155 -19.236351,0.27154 -0.658226,2.62258 c -1.032556,4.11403 0.405747,27.24135 2.073085,33.33433 3.852388,14.07785 14.196538,28.59966 25.870362,36.31854 6.58648,4.35506 142.54278,66.88893 143.77246,66.12895 C 253.6239,520.11441 254,491.79686 254,451.55258 V 383.2232 l -25.07095,-41.8616 c -13.78903,-23.02388 -25.71403,-42.52053 -26.5,-43.32589 C 201.19002,296.76613 201,306.90899 201,374.3171 c 0,61.9556 -0.25812,77.84472 -1.27089,78.23336 -1.43628,0.55115 -37.82636,-16.19102 -38.96638,-17.92747 -0.4055,-0.61764 -0.6305,-49.49799 -0.5,-108.62299 L 160.5,218.5 h 19.43347 19.43347 l 36.77323,60.5 c 20.22527,33.275 37.2622,60.5 37.85983,60.5 0.59763,0 17.63456,-27.225 37.85983,-60.5 l 36.77323,-60.5 H 368.06653 387.5 l 0.23727,107.5 c 0.1305,59.125 -0.0945,108.00535 -0.5,108.62299 -1.14002,1.73645 -37.5301,18.47862 -38.96638,17.92747 C 347.25812,452.16182 347,436.2727 347,374.3171 c 0,-66.85625 -0.1971,-77.54058 -1.40722,-76.28139 -0.77398,0.80536 -12.58648,19.91429 -26.25,42.46429 l -24.84278,41 -0.27028,68.92972 c -0.14865,37.91135 0.11716,69.31716 0.59069,69.79069 1.03667,1.03667 136.42609,-60.9818 143.86708,-65.90187 11.67382,-7.71888 22.01797,-22.24069 25.87036,-36.31854 1.66734,-6.09298 3.10564,-29.2203 2.07309,-33.33433 l -0.65823,-2.62258 -19.23635,-0.27154 L 427.5,381.5 V 362 342.5 h 39.5 39.5 l 0.2872,32.5 c 0.3312,37.47858 -0.36994,45.04013 -5.60978,60.5 -7.94464,23.44019 -24.37755,43.82791 -44.67742,55.42965 -10.90509,6.23246 -180.22822,84.07676 -182.75317,84.0186 -1.23576,-0.0285 -41.52273,-18.21013 -89.5266,-40.40371 z M 43.245933,301.17316 c -0.996347,-0.63259 -1.201854,-25.44442 -1,-120.73469 L 42.5,60.5 111.44305,60.243049 c 37.91868,-0.141323 69.24835,0.08368 69.62151,0.5 0.37315,0.416323 0.25722,4.581951 -0.25762,9.256951 -0.60787,5.519699 -0.57552,11.818086 0.0923,17.963384 0.78935,7.264176 0.74625,9.642627 -0.18543,10.234687 -0.66757,0.424217 -23.37626,0.778194 -50.46376,0.786616 L 81,99 v 100.3 c 0,76.67778 -0.282619,100.58262 -1.2,101.5 -1.378337,1.37834 -34.439308,1.71584 -36.554067,0.37316 z M 468.2,300.8 C 467.28262,299.88262 467,275.97983 467,199.30925 V 99.018498 L 416.83298,98.759249 366.66597,98.5 l 0.0956,-19 0.0956,-19 h 69.32144 69.32145 l 0.25407,119.93847 c 0.20185,95.29027 -0.004,120.1021 -1,120.73469 C 502.63931,302.51584 469.57834,302.17834 468.2,300.8 Z M 263.83527,266.75 254.5,251.5 l -0.5,-36 -0.5,-36 -46.6808,-0.25984 -46.68079,-0.25985 -11.56921,-18.86745 C 142.20614,149.73576 137,140.74382 137,140.13076 c 0,-0.80382 16.24349,-1.18661 58.25,-1.3727 L 253.5,138.5 l 0.26091,-4 c 0.32251,-4.94435 0.10013,-5.2422 -7.11158,-9.52527 -3.21787,-1.9111 -8.45287,-6.24757 -11.63333,-9.6366 -9.53478,-10.16003 -13.98299,-21.556179 -14.00413,-35.878031 -0.0268,-18.139728 7.74568,-33.321831 22.2871,-43.533878 C 253.34531,28.870951 261.06746,26.5 274,26.5 c 12.93254,0 20.65469,2.370951 30.70103,9.426221 14.54142,10.212047 22.31388,25.39415 22.2871,43.533878 -0.0211,14.321852 -4.46935,25.718001 -14.00413,35.878031 -3.18046,3.38903 -8.41546,7.7255 -11.63333,9.6366 -7.21171,4.28307 -7.43409,4.58092 -7.11158,9.52527 l 0.26091,4 58.25,0.25806 c 37.24523,0.165 58.25,0.61186 58.25,1.23921 0,0.53963 -5.20437,9.53157 -11.56528,19.98209 l -11.56527,19.00095 -46.68473,0.25984 L 294.5,179.5 l -0.5,36 -0.5,36 -9.33527,15.25 C 279.03034,275.1375 274.45621,282 274,282 c -0.45621,0 -5.03034,-6.8625 -10.16473,-15.25 z M 283.7532,98.11601 C 296.68744,91.483284 299.03209,73.949431 288.34158,63.803048 275.13954,51.27296 253,60.788171 253,78.992281 c 0,16.507561 16.20459,26.584309 30.7532,19.123729 z"
         style="fill:#8ad8e2" />
      <path
         id="path84"
         d="M 183.09419,533.50259 C 126.13219,507.14983 91.114021,490.3946 86.594189,487.33001 67.451889,474.35089 52.545404,453.8088 45.35518,430.5 l -2.776291,-9 L 42.22718,381.75 41.875471,342 H 80.937735 120 v 19.5 19.5 h -17.91821 c -9.855019,0 -18.630019,0.27314 -19.500003,0.60699 -1.332634,0.51138 -1.579052,2.67719 -1.564423,13.75 0.02131,16.12832 1.689796,24.60883 6.914177,35.14301 4.71653,9.51018 10.985852,16.91397 19.407209,22.91906 C 113.43911,457.76911 249.24293,521 252.48534,521 c 1.33908,0 1.50645,-8.08545 1.44385,-69.75 l -0.0708,-69.75 -25.67919,-42.4164 c -14.12357,-23.32903 -26.1292,-42.45403 -26.6792,-42.5 -0.6568,-0.0549 -1.0879,26.60027 -1.25613,77.6664 -0.20825,63.216 -0.50048,77.75 -1.5633,77.75 -0.71893,0 -9.37867,-3.78222 -19.24386,-8.40493 L 161.5,435.19014 l -0.25447,-108.11668 -0.25446,-108.11668 19.20404,0.27161 19.20405,0.27161 36.55042,60.21655 c 22.20052,36.5752 37.13933,60.2174 38.05042,60.21871 0.91322,10e-4 15.79231,-23.55445 38.036,-60.21654 L 348.572,219.5 l 19.21846,-0.27161 19.21847,-0.27161 -0.25446,108.11668 -0.25447,108.11668 -17.93671,8.40493 C 358.6981,448.21778 350.03836,452 349.31943,452 c -1.06282,0 -1.35505,-14.534 -1.5633,-77.75 -0.16676,-50.62177 -0.60255,-77.75 -1.24899,-77.75 -0.54607,0 -12.55067,19.125 -26.67689,42.5 l -25.68404,42.5 -0.0731,69.75 c -0.0646,61.66555 0.10246,69.75 1.44156,69.75 3.24241,0 139.04623,-63.23089 145.14659,-67.58094 8.42136,-6.00509 14.69068,-13.40888 19.40721,-22.91906 5.22438,-10.53418 6.89287,-19.01469 6.91418,-35.14301 0.0146,-11.07281 -0.23179,-13.23862 -1.56443,-13.75 C 464.54823,381.27314 455.77323,381 445.91821,381 H 428 V 361.5 342 h 39 39 l -0.0216,36.75 c -0.0192,32.51089 -0.24319,37.75183 -1.94226,45.43511 -6.35977,28.75918 -26.13442,55.21094 -50.98484,68.20041 -10.56279,5.52123 -178.11487,82.62107 -179.3898,82.54702 -0.6388,-0.0371 -41.39407,-18.68058 -90.56727,-41.42995 z M 43.245933,301.17316 c -0.996347,-0.63259 -1.201854,-25.44442 -1,-120.73469 L 42.5,60.5 111.44305,60.243049 c 37.91868,-0.141323 69.24835,0.08368 69.62151,0.5 0.37315,0.416323 0.25722,4.581951 -0.25762,9.256951 -0.60787,5.519699 -0.57552,11.818086 0.0923,17.963384 0.78935,7.264176 0.74625,9.642627 -0.18543,10.234687 -0.66757,0.424217 -23.37626,0.778194 -50.46376,0.786616 L 81,99 v 100.3 c 0,76.67778 -0.282619,100.58262 -1.2,101.5 -1.378337,1.37834 -34.439308,1.71584 -36.554067,0.37316 z M 468.2,300.8 C 467.28262,299.88262 467,275.97983 467,199.30925 V 99.018498 L 416.83298,98.759249 366.66597,98.5 l 0.0956,-19 0.0956,-19 h 69.32144 69.32145 l 0.25407,119.93847 c 0.20185,95.29027 -0.004,120.1021 -1,120.73469 C 502.63931,302.51584 469.57834,302.17834 468.2,300.8 Z M 264.76127,267.30024 c -4.6405,-7.59013 -8.96018,-14.78316 -9.59928,-15.9845 C 254.34295,249.77615 254,238.78207 254,214.06574 V 179 h -46.43191 -46.4319 L 159.199,176.25 C 154.30569,169.30356 138,141.78218 138,140.4695 138,139.19372 145.64611,139 196,139 h 58 v -5.04651 c 0,-4.62225 -0.26276,-5.18972 -3.12551,-6.75 -12.47972,-6.8018 -22.13924,-17.83239 -26.69796,-30.48747 -3.55594,-9.871355 -3.71294,-24.085678 -0.37359,-33.824581 5.49848,-16.035855 17.22724,-27.917262 33.08434,-33.51492 9.41223,-3.322581 24.81321,-3.322581 34.22544,0 15.8571,5.597658 27.58586,17.479065 33.08434,33.51492 3.33935,9.738903 3.18235,23.953226 -0.37359,33.824581 -4.55872,12.65508 -14.21824,23.68567 -26.69796,30.48747 -2.86275,1.56028 -3.12551,2.12775 -3.12551,6.75 V 139 h 57.53138 c 46.81333,0 57.62603,0.24662 58.03938,1.32381 0.41371,1.07811 -18.17324,32.99721 -21.79381,37.42619 -0.79078,0.96734 -11.509,1.25 -47.39939,1.25 H 294 v 35.30124 35.30123 l -9.37768,15.40799 c -5.15772,8.4744 -9.83805,15.56145 -10.40072,15.74901 -0.56267,0.18755 -4.81982,-5.8691 -9.46033,-13.45923 z m 19.3591,-169.094462 c 9.9954,-5.221658 14.32822,-16.881915 9.95054,-26.778379 C 289.98476,62.189988 283.51904,57.8 274,57.8 251.40851,57.8 243.90212,87.769404 263.87963,98.205778 267.55736,100.12704 270.71911,101 274,101 c 3.28089,0 6.44264,-0.87296 10.12037,-2.794222 z"
         style="fill:#a5bac3" />
      <path
         id="path82"
         d="M 183.09419,533.50259 C 126.13219,507.14983 91.114021,490.3946 86.594189,487.33001 67.451889,474.35089 52.545404,453.8088 45.35518,430.5 l -2.776291,-9 L 42.22718,381.75 41.875471,342 H 80.937735 120 v 19.5 19.5 h -17.91821 c -9.855019,0 -18.630019,0.27314 -19.500003,0.60699 -1.332634,0.51138 -1.579052,2.67719 -1.564423,13.75 0.02131,16.12832 1.689796,24.60883 6.914177,35.14301 4.71653,9.51018 10.985852,16.91397 19.407209,22.91906 C 113.43911,457.76911 249.24293,521 252.48534,521 c 1.33908,0 1.50645,-8.08545 1.44385,-69.75 l -0.0708,-69.75 -25.67919,-42.4164 c -14.12357,-23.32903 -26.1292,-42.45403 -26.6792,-42.5 -0.6568,-0.0549 -1.0879,26.60027 -1.25613,77.6664 -0.20825,63.216 -0.50048,77.75 -1.5633,77.75 -0.71893,0 -9.37867,-3.78222 -19.24386,-8.40493 L 161.5,435.19014 l -0.25447,-108.11668 -0.25446,-108.11668 19.20404,0.27161 19.20405,0.27161 36.55042,60.21655 c 22.20052,36.5752 37.13933,60.2174 38.05042,60.21871 0.91322,10e-4 15.79231,-23.55445 38.036,-60.21654 L 348.572,219.5 l 19.21846,-0.27161 19.21847,-0.27161 -0.25446,108.11668 -0.25447,108.11668 -17.93671,8.40493 C 358.6981,448.21778 350.03836,452 349.31943,452 c -1.06282,0 -1.35505,-14.534 -1.5633,-77.75 -0.16676,-50.62177 -0.60255,-77.75 -1.24899,-77.75 -0.54607,0 -12.55067,19.125 -26.67689,42.5 l -25.68404,42.5 -0.0731,69.75 c -0.0646,61.66555 0.10246,69.75 1.44156,69.75 3.24241,0 139.04623,-63.23089 145.14659,-67.58094 8.42136,-6.00509 14.69068,-13.40888 19.40721,-22.91906 5.22438,-10.53418 6.89287,-19.01469 6.91418,-35.14301 0.0146,-11.07281 -0.23179,-13.23862 -1.56443,-13.75 C 464.54823,381.27314 455.77323,381 445.91821,381 H 428 V 361.5 342 h 39 39 l -0.0216,36.75 c -0.0192,32.51089 -0.24319,37.75183 -1.94226,45.43511 -6.35977,28.75918 -26.13442,55.21094 -50.98484,68.20041 -10.56279,5.52123 -178.11487,82.62107 -179.3898,82.54702 -0.6388,-0.0371 -41.39407,-18.68058 -90.56727,-41.42995 z m 81.66708,-266.20235 c -4.6405,-7.59013 -8.96018,-14.78316 -9.59928,-15.9845 C 254.34295,249.77615 254,238.78207 254,214.06574 V 179 h -46.43191 -46.4319 L 159.199,176.25 C 154.30569,169.30356 138,141.78218 138,140.4695 138,139.19372 145.64611,139 196,139 h 58 v -5.04651 c 0,-4.62225 -0.26276,-5.18972 -3.12551,-6.75 -12.47972,-6.8018 -22.13924,-17.83239 -26.69796,-30.48747 -3.55594,-9.871355 -3.71294,-24.085678 -0.37359,-33.824581 5.49848,-16.035855 17.22724,-27.917262 33.08434,-33.51492 9.41223,-3.322581 24.81321,-3.322581 34.22544,0 15.8571,5.597658 27.58586,17.479065 33.08434,33.51492 3.33935,9.738903 3.18235,23.953226 -0.37359,33.824581 -4.55872,12.65508 -14.21824,23.68567 -26.69796,30.48747 -2.86275,1.56028 -3.12551,2.12775 -3.12551,6.75 V 139 h 57.53138 c 46.81333,0 57.62603,0.24662 58.03938,1.32381 0.41371,1.07811 -18.17324,32.99721 -21.79381,37.42619 -0.79078,0.96734 -11.509,1.25 -47.39939,1.25 H 294 v 35.30124 35.30123 l -9.37768,15.40799 c -5.15772,8.4744 -9.83805,15.56145 -10.40072,15.74901 -0.56267,0.18755 -4.81982,-5.8691 -9.46033,-13.45923 z m 19.3591,-169.094462 c 9.9954,-5.221658 14.32822,-16.881915 9.95054,-26.778379 C 289.98476,62.189988 283.51904,57.8 274,57.8 251.40851,57.8 243.90212,87.769404 263.87963,98.205778 267.55736,100.12704 270.71911,101 274,101 c 3.28089,0 6.44264,-0.87296 10.12037,-2.794222 z"
         style="fill:#6dcedb" />
      <path
         id="path80"
         d="M 182.5,532.67881 C 117.61068,502.65016 91.411132,490.04481 85.789337,486.14856 67.747036,473.64412 53.531123,454.11812 46.700457,432.45876 42.718492,419.83234 42,411.19123 42,375.92764 V 343 h 39.022065 39.022065 l -0.27206,18.75 -0.27207,18.75 -18.72658,0.27198 c -18.068334,0.26242 -18.767494,0.34843 -19.890596,2.44697 -1.604781,2.99856 -0.452259,27.48201 1.657838,35.2181 3.6223,13.28016 12.508066,26.44459 23.309818,34.53394 4.84829,3.63085 23.71443,12.76267 76.41292,36.98632 38.48633,17.69082 70.59648,31.9267 71.35588,31.63529 1.15627,-0.4437 1.37631,-11.79203 1.35359,-69.81122 L 254.94573,382.5 228.69658,339.07457 C 214.25954,315.19058 201.89675,295.46558 201.22371,295.24124 200.26573,294.92191 200,311.77658 200,372.85765 c 0,42.91337 -0.36996,78.25296 -0.82212,78.53242 -0.7102,0.43892 -31.55112,-13.40412 -36.43238,-16.35278 -1.65773,-1.0014 -1.74047,-6.9746 -1.5,-108.29858 L 161.5,219.5 l 18.07521,-0.27188 c 16.25366,-0.24449 18.23192,-0.0933 19.63024,1.5 0.85527,0.97453 17.39335,27.87188 36.75128,59.77188 19.35793,31.9 35.83682,58.65893 36.61975,59.46429 1.24992,1.28571 1.59712,1.28571 2.84704,0 0.78293,-0.80536 17.26182,-27.56429 36.61975,-59.46429 19.35793,-31.9 35.89601,-58.79735 36.75128,-59.77188 1.39832,-1.59332 3.37658,-1.74449 19.63024,-1.5 L 386.5,219.5 l 0.2545,107.23871 c 0.24047,101.32398 0.15773,107.29718 -1.5,108.29858 -4.88126,2.94866 -35.72218,16.7917 -36.43238,16.35278 C 348.36996,451.11061 348,415.77102 348,372.85765 c 0,-61.46944 -0.26204,-77.93697 -1.235,-77.61265 -0.67924,0.22641 -13.04249,19.95141 -27.47388,43.83333 L 293.05223,382.5 l -0.0261,69.28138 c -0.0219,58.01851 0.19835,69.36752 1.35461,69.81122 0.7594,0.29141 32.86955,-13.94447 71.35588,-31.63529 52.69849,-24.22365 71.56463,-33.35547 76.41292,-36.98632 10.80175,-8.08935 19.68752,-21.25378 23.30982,-34.53394 2.1101,-7.73609 3.26262,-32.21954 1.65784,-35.2181 -1.12311,-2.09854 -1.82227,-2.18455 -19.8906,-2.44697 L 428.5,380.5 428.22793,361.75 427.95587,343 H 466.97793 506 v 32.92764 c 0,35.26359 -0.71849,43.9047 -4.70046,56.53112 -6.92017,21.94317 -21.3662,41.6181 -39.6731,54.03321 -5.86476,3.97728 -32.84853,16.92143 -96.95524,46.50955 -48.85584,22.54917 -89.80584,40.96812 -91,40.93102 -1.19416,-0.0371 -42.2212,-18.60128 -91.1712,-41.25373 z m 86.20365,-259.87942 c -2.475,-4.01466 -6.57083,-10.66275 -9.10183,-14.77353 L 255,250.55173 v -35.07587 c 0,-25.94789 -0.31228,-35.38814 -1.2,-36.27586 -0.89828,-0.89828 -12.67667,-1.2 -46.84501,-1.2 -42.23678,0 -45.75635,-0.13067 -47.13601,-1.75 C 158.16277,174.3061 138,141.25745 138,140.48668 138,140.21901 163.8199,140 195.37756,140 c 48.46076,0 57.56148,-0.22162 58.5611,-1.4261 0.65096,-0.78435 1.04356,-3.34546 0.87245,-5.69135 -0.29589,-4.05664 -0.60459,-4.43534 -6.31111,-7.74215 -7.77764,-4.50698 -17.25656,-14.20834 -20.80923,-21.29755 -7.69567,-15.356365 -7.66618,-34.717717 0.075,-49.267986 3.79088,-7.125277 15.4758,-18.514817 22.40515,-21.838782 21.45975,-10.294106 43.95198,-6.66302 60.34614,9.74212 7.75605,7.761246 11.63661,14.175104 13.94999,23.05676 1.88388,7.232709 1.9661,20.258768 0.1702,26.965038 -3.53479,13.19967 -13.11132,25.62927 -25.13729,32.62632 -5.70381,3.31863 -6.01536,3.70152 -6.31111,7.75623 -0.17111,2.34589 0.22149,4.907 0.87245,5.69135 0.99962,1.20448 10.10034,1.4261 58.5611,1.4261 31.55766,0 57.37756,0.18882 57.37756,0.41959 0,0.55502 -18.71196,31.29862 -21.19938,34.83041 l -1.93681,2.75 h -45.7319 c -34.23593,0 -46.03356,0.30165 -46.93191,1.2 -0.88764,0.88764 -1.20031,10.3236 -1.2012,36.25 l -10e-4,35.05 -8.86581,14.45567 c -4.87619,7.95061 -9.32983,14.61034 -9.89698,14.79939 -0.56714,0.18905 -3.05617,-2.941 -5.53117,-6.95567 z M 283.7532,99.110275 C 291.67335,95.03667 296,87.839337 296,78.737882 296,67.31511 285.56051,57 274,57 c -11.68631,0 -22.0241,10.327315 -21.97804,21.955763 0.0283,7.13635 2.57854,12.690474 7.93056,17.2716 6.98196,5.976297 15.72688,7.035547 23.80068,2.882912 z"
         style="fill:#4cc4d3" />
      <path
         id="path78"
         d="M 186.5,533.63922 C 90.676816,489.2992 94.840239,491.29528 86.738157,485.81016 64.280789,470.60651 48.132101,444.7915 44.006456,417.5 43.374638,413.32047 43.059422,397.00204 43.224135,377 L 43.5,343.5 H 81 118.5 l 0.27247,18.22833 0.27248,18.22833 -19.272475,0.27167 L 80.5,380.5 V 398 c 0,15.65897 0.241665,18.19925 2.297164,24.14673 4.67859,13.53726 14.002734,25.93046 24.927866,33.13292 C 114.2397,459.57447 250.83811,523 253.57314,523 c 0.73493,0 1.60213,-1.4625 1.92712,-3.25 0.32498,-1.7875 0.45787,-33.625 0.29531,-70.75 L 255.5,381.5 229.87157,339.24894 c -14.09564,-23.23808 -26.18824,-42.92558 -26.87245,-43.75 C 202.31492,294.67452 201.13521,294 200.37756,294 199.21918,294 199,306.49001 199,372.5 c 0,43.175 -0.15265,78.5 -0.33922,78.5 -0.18656,0 -8.39906,-3.76277 -18.25,-8.36172 L 162.5,434.27657 162.2455,327.13828 161.99099,220 h 17.99032 17.99031 l 2.44267,3.75 c 1.34346,2.0625 18.01513,29.4 37.04814,60.75 26.54599,43.72492 35.05546,57 36.53757,57 1.48211,0 9.99158,-13.27508 36.53757,-57 19.03301,-31.35 35.70468,-58.6875 37.04814,-60.75 l 2.44267,-3.75 h 17.99031 17.99032 L 385.7545,327.13828 385.5,434.27657 367.58922,442.63828 C 357.73828,447.23723 349.52578,451 349.33922,451 349.15265,451 349,415.675 349,372.5 c 0,-82.58481 0.0472,-81.71771 -4.17871,-76.75 -0.81878,0.9625 -12.92603,20.65 -26.90499,43.75 l -25.4163,42 -0.29557,67.5 c -0.16256,37.125 -0.0297,68.9625 0.29531,70.75 0.32499,1.7875 1.19219,3.25 1.92712,3.25 2.73503,0 139.33344,-63.42553 145.84811,-67.72035 10.92513,-7.20246 20.24928,-19.59566 24.92787,-33.13292 C 467.25833,416.19925 467.5,413.65897 467.5,398 v -17.5 l -19.27247,-0.27167 -19.27248,-0.27167 0.27248,-18.22833 L 429.5,343.5 h 37.5 37.5 l 0.27587,33.5 c 0.16471,20.00204 -0.15051,36.32047 -0.78233,40.5 -4.86747,32.19877 -25.43612,60.60128 -54.49715,75.25316 -6.45563,3.25477 -175.35139,81.28129 -175.75444,81.19509 C 273.60888,573.91979 234.35,555.78073 186.5,533.63922 Z M 264.91421,265.25 256.5,251.5 256,215.33182 c -0.275,-19.8925 -0.87459,-36.5425 -1.33243,-37 C 254.20974,177.87432 232.87394,177.275 207.25469,177 L 160.67424,176.5 149.94222,159 139.21019,141.5 196.52241,141 c 31.52172,-0.275 57.61226,-0.80034 57.97898,-1.16741 1.27895,-1.28018 1.71498,-8.55978 0.63373,-10.58012 -0.59925,-1.11971 -3.4623,-3.38905 -6.36233,-5.04299 C 231.99915,114.64319 222.83863,98.879667 222.79113,79.5 c -0.0267,-10.876302 2.40867,-19.407002 8.01398,-28.07213 20.25351,-31.309481 66.13627,-31.309481 86.38978,0 5.60531,8.665128 8.04063,17.195828 8.01398,28.07213 -0.0479,19.554619 -8.98693,34.76072 -26.49486,45.07028 -5.79863,3.41453 -7.34324,6.26208 -6.3291,11.66794 0.46995,2.50506 1.31559,3.71597 2.88973,4.13794 1.22395,0.32809 27.29918,0.60268 57.94495,0.61019 l 55.7196,0.0137 -10.81335,17.75 -10.81335,17.75 -46.57382,0.5 c -25.6156,0.275 -46.94841,0.87432 -47.40624,1.33182 -0.45784,0.4575 -1.05743,17.1075 -1.33243,37 L 291.5,251.5 283.08579,265.25 C 278.45798,272.8125 274.36937,279 274,279 c -0.36937,0 -4.45798,-6.1875 -9.08579,-13.75 z m 19.0989,-165.292067 c 11.82431,-5.913227 16.21588,-19.22433 10.23689,-31.028618 -8.54817,-16.876616 -31.95183,-16.876616 -40.5,0 -9.99491,19.732913 10.60864,40.857635 30.26311,31.028618 z"
         style="fill:#23b7ca" />
    </g>
  </g>
</svg>
